<svg width="46" height="46" viewBox="0 0 46 46" fill="none" xmlns="http://www.w3.org/2000/svg">
<path d="M24.2634 21.2026V21.7026H24.7634H30.3884C30.7531 21.7026 31.1028 21.8475 31.3607 22.1054C31.6186 22.3632 31.7634 22.713 31.7634 23.0776C31.7634 23.4423 31.6186 23.792 31.3607 24.0499C31.1028 24.3078 30.7531 24.4526 30.3884 24.4526H24.7634H24.2634V24.9526V30.5776C24.2634 30.9423 24.1186 31.292 23.8607 31.5499C23.6028 31.8078 23.2531 31.9526 22.8884 31.9526C22.5238 31.9526 22.174 31.8078 21.9162 31.5499C21.6583 31.292 21.5134 30.9423 21.5134 30.5776V24.9526V24.4526H21.0134H15.3884C15.0238 24.4526 14.674 24.3078 14.4162 24.0499C14.1583 23.792 14.0134 23.4423 14.0134 23.0776C14.0134 22.713 14.1583 22.3632 14.4162 22.1054C14.674 21.8475 15.0238 21.7026 15.3884 21.7026H21.0134H21.5134V21.2026V15.5776C21.5134 15.213 21.6583 14.8632 21.9162 14.6054C22.174 14.3475 22.5238 14.2026 22.8884 14.2026C23.2531 14.2026 23.6028 14.3475 23.8607 14.6054C24.1186 14.8632 24.2634 15.213 24.2634 15.5776V21.2026ZM12.7493 7.90332C15.7505 5.89798 19.2789 4.82764 22.8884 4.82764C25.2851 4.82764 27.6582 5.29969 29.8724 6.21684C32.0866 7.13398 34.0985 8.47827 35.7931 10.1729C37.4878 11.8676 38.8321 13.8795 39.7492 16.0937C40.6664 18.3079 41.1384 20.681 41.1384 23.0776C41.1384 26.6871 40.0681 30.2156 38.0628 33.2168C36.0574 36.218 33.2072 38.5571 29.8724 39.9384C26.5377 41.3197 22.8682 41.6811 19.328 40.977C15.7879 40.2728 12.536 38.5346 9.98374 35.9823C7.43143 33.43 5.69329 30.1782 4.9891 26.638C4.28492 23.0979 4.64634 19.4284 6.02763 16.0937C7.40893 12.7589 9.74808 9.90865 12.7493 7.90332ZM14.2771 35.9654C16.8261 37.6686 19.8228 38.5776 22.8884 38.5776C26.9993 38.5776 30.9418 36.9446 33.8486 34.0378C36.7554 31.131 38.3884 27.1885 38.3884 23.0776C38.3884 20.012 37.4794 17.0153 35.7762 14.4663C34.0731 11.9173 31.6523 9.93066 28.82 8.7575C25.9878 7.58435 22.8712 7.27739 19.8645 7.87547C16.8578 8.47354 14.096 9.94977 11.9283 12.1175C9.76057 14.2852 8.28434 17.047 7.68626 20.0537C7.08819 23.0604 7.39515 26.177 8.5683 29.0092C9.74146 31.8415 11.7281 34.2623 14.2771 35.9654Z" fill="#B7ABB1" stroke="#161012"/>
</svg>
