<svg width="25" height="25" viewBox="0 0 25 25" fill="none" xmlns="http://www.w3.org/2000/svg">
<path d="M17.4587 9.75442C17.2713 9.56816 17.0179 9.46362 16.7537 9.46362C16.4895 9.46362 16.2361 9.56816 16.0487 9.75442L12.4587 13.2944L8.91869 9.75442C8.73133 9.56816 8.47787 9.46362 8.21369 9.46362C7.9495 9.46362 7.69605 9.56816 7.50869 9.75442C7.41496 9.84738 7.34057 9.95798 7.2898 10.0798C7.23903 10.2017 7.21289 10.3324 7.21289 10.4644C7.21289 10.5964 7.23903 10.7271 7.2898 10.849C7.34057 10.9709 7.41496 11.0815 7.50869 11.1744L11.7487 15.4144C11.8417 15.5081 11.9523 15.5825 12.0741 15.6333C12.196 15.6841 12.3267 15.7102 12.4587 15.7102C12.5907 15.7102 12.7214 15.6841 12.8433 15.6333C12.9651 15.5825 13.0757 15.5081 13.1687 15.4144L17.4587 11.1744C17.5524 11.0815 17.6268 10.9709 17.6776 10.849C17.7283 10.7271 17.7545 10.5964 17.7545 10.4644C17.7545 10.3324 17.7283 10.2017 17.6776 10.0798C17.6268 9.95798 17.5524 9.84738 17.4587 9.75442Z" fill="white"/>
</svg>
