<svg width="29" height="29" viewBox="0 0 29 29" fill="none" xmlns="http://www.w3.org/2000/svg">
<path d="M24.1769 10.1937L17.1769 4.05702C16.5353 3.48307 15.7045 3.16576 14.8436 3.16576C13.9827 3.16576 13.152 3.48307 12.5103 4.05702L5.51028 10.1937C5.13971 10.5251 4.844 10.9317 4.64283 11.3863C4.44167 11.8409 4.33966 12.3332 4.34362 12.8304V23.027C4.34362 23.9553 4.71237 24.8455 5.36874 25.5019C6.02512 26.1583 6.91536 26.527 7.84362 26.527H21.8436C22.7719 26.527 23.6621 26.1583 24.3185 25.5019C24.9749 24.8455 25.3436 23.9553 25.3436 23.027V12.8187C25.3459 12.3235 25.2431 11.8335 25.042 11.381C24.8409 10.9285 24.546 10.5238 24.1769 10.1937ZM17.1769 24.1937H12.5103V18.3604C12.5103 18.0509 12.6332 17.7542 12.852 17.5354C13.0708 17.3166 13.3675 17.1937 13.6769 17.1937H16.0103C16.3197 17.1937 16.6164 17.3166 16.8352 17.5354C17.054 17.7542 17.1769 18.0509 17.1769 18.3604V24.1937ZM23.0103 23.027C23.0103 23.3364 22.8874 23.6332 22.6686 23.852C22.4498 24.0708 22.153 24.1937 21.8436 24.1937H19.5103V18.3604C19.5103 17.4321 19.1415 16.5419 18.4852 15.8855C17.8288 15.2291 16.9385 14.8604 16.0103 14.8604H13.6769C12.7487 14.8604 11.8585 15.2291 11.2021 15.8855C10.5457 16.5419 10.1769 17.4321 10.1769 18.3604V24.1937H7.84362C7.5342 24.1937 7.23745 24.0708 7.01866 23.852C6.79987 23.6332 6.67695 23.3364 6.67695 23.027V12.8187C6.67716 12.653 6.71264 12.4893 6.78104 12.3385C6.84943 12.1876 6.94917 12.053 7.07362 11.9437L14.0736 5.81868C14.2865 5.63165 14.5602 5.52849 14.8436 5.52849C15.127 5.52849 15.4007 5.63165 15.6136 5.81868L22.6136 11.9437C22.7381 12.053 22.8378 12.1876 22.9062 12.3385C22.9746 12.4893 23.0101 12.653 23.0103 12.8187V23.027Z" fill="#D1C5CB"/>
</svg>
