<svg width="25" height="25" viewBox="0 0 25 25" fill="none" xmlns="http://www.w3.org/2000/svg">
<path d="M12.6304 2.59656C10.6526 2.59656 8.71916 3.18305 7.07467 4.28186C5.43018 5.38068 4.14846 6.94246 3.39158 8.76972C2.6347 10.597 2.43667 12.6077 2.82252 14.5475C3.20838 16.4873 4.16078 18.2691 5.55931 19.6676C6.95783 21.0662 8.73966 22.0186 10.6795 22.4044C12.6193 22.7903 14.6299 22.5922 16.4572 21.8354C18.2845 21.0785 19.8463 19.7968 20.9451 18.1523C22.0439 16.5078 22.6304 14.5744 22.6304 12.5966C22.6274 9.9453 21.5729 7.40347 19.6982 5.52875C17.8235 3.65402 15.2816 2.59951 12.6304 2.59656ZM12.6304 20.5966C11.0481 20.5966 9.50141 20.1274 8.18581 19.2483C6.87022 18.3693 5.84484 17.1198 5.23934 15.658C4.63384 14.1962 4.47541 12.5877 4.78409 11.0358C5.09278 9.48399 5.8547 8.05852 6.97352 6.9397C8.09234 5.82088 9.51781 5.05896 11.0697 4.75028C12.6215 4.44159 14.23 4.60002 15.6918 5.20552C17.1537 5.81102 18.4031 6.8364 19.2821 8.152C20.1612 9.46759 20.6304 11.0143 20.6304 12.5966C20.6279 14.7175 19.7843 16.751 18.2845 18.2507C16.7848 19.7505 14.7514 20.5941 12.6304 20.5966ZM12.6304 12.0966C12.3652 12.0966 12.1108 12.2019 11.9233 12.3895C11.7357 12.577 11.6304 12.8313 11.6304 13.0966V16.0966C11.6304 16.3618 11.7357 16.6161 11.9233 16.8037C12.1108 16.9912 12.3652 17.0966 12.6304 17.0966C12.8956 17.0966 13.1499 16.9912 13.3375 16.8037C13.525 16.6161 13.6304 16.3618 13.6304 16.0966V13.0966C13.6304 12.8313 13.525 12.577 13.3375 12.3895C13.1499 12.2019 12.8956 12.0966 12.6304 12.0966ZM12.6304 8.09656C12.3831 8.09656 12.1415 8.16987 11.9359 8.30722C11.7304 8.44457 11.5701 8.6398 11.4755 8.8682C11.3809 9.09661 11.3562 9.34794 11.4044 9.59042C11.4526 9.8329 11.5717 10.0556 11.7465 10.2304C11.9213 10.4053 12.144 10.5243 12.3865 10.5725C12.629 10.6208 12.8803 10.596 13.1087 10.5014C13.3371 10.4068 13.5324 10.2466 13.6697 10.041C13.8071 9.83546 13.8804 9.59378 13.8804 9.34656C13.8804 9.01504 13.7487 8.69709 13.5143 8.46267C13.2798 8.22825 12.9619 8.09656 12.6304 8.09656Z" fill="#D8D3D6"/>
</svg>
