<svg width="29" height="29" viewBox="0 0 29 29" fill="none" xmlns="http://www.w3.org/2000/svg">
<path d="M25.7868 7.58035C25.747 7.43137 25.678 7.29177 25.5839 7.16962C25.4898 7.04746 25.3724 6.94518 25.2385 6.86868L19.1718 3.36868C19.0394 3.29106 18.8929 3.24035 18.7408 3.21945C18.5887 3.19855 18.434 3.20788 18.2855 3.24689C18.137 3.28591 17.9977 3.35385 17.8755 3.44683C17.7533 3.5398 17.6507 3.65597 17.5735 3.78868L14.8435 8.52535L12.1135 3.78868C12.0363 3.65597 11.9337 3.5398 11.8115 3.44683C11.6893 3.35385 11.55 3.28591 11.4015 3.24689C11.253 3.20788 11.0983 3.19855 10.9462 3.21945C10.7941 3.24035 10.6476 3.29106 10.5152 3.36868L4.44849 6.86868C4.3146 6.94518 4.1972 7.04746 4.10308 7.16962C4.00896 7.29177 3.93999 7.43137 3.90016 7.58035C3.82295 7.87604 3.86484 8.19022 4.01683 8.45535L8.68349 16.4237C8.16286 17.3775 7.87504 18.4408 7.84349 19.527C7.84072 20.5867 8.07856 21.6331 8.53908 22.5875C8.99961 23.5419 9.6708 24.3792 10.502 25.0364C11.3333 25.6937 12.3029 26.1536 13.3378 26.3815C14.3726 26.6094 15.4457 26.5994 16.4762 26.3523C17.5066 26.1051 18.4675 25.6272 19.2864 24.9547C20.1052 24.2821 20.7607 23.4324 21.2034 22.4696C21.6461 21.5069 21.8644 20.4561 21.8419 19.3967C21.8194 18.3373 21.5567 17.2968 21.0735 16.3537L25.6235 8.46701C25.7082 8.33745 25.7662 8.19232 25.7943 8.0401C25.8223 7.88787 25.8198 7.73159 25.7868 7.58035ZM6.67683 8.30368L10.7135 5.97035L14.4702 12.527C12.8688 12.6259 11.3514 13.2774 10.1768 14.3703L6.67683 8.30368ZM14.8435 24.1937C13.6058 24.1937 12.4188 23.702 11.5437 22.8268C10.6685 21.9517 10.1768 20.7647 10.1768 19.527C10.1768 18.2893 10.6685 17.1024 11.5437 16.2272C12.4188 15.352 13.6058 14.8603 14.8435 14.8603C16.0812 14.8603 17.2682 15.352 18.1433 16.2272C19.0185 17.1024 19.5102 18.2893 19.5102 19.527C19.5102 20.7647 19.0185 21.9517 18.1433 22.8268C17.2682 23.702 16.0812 24.1937 14.8435 24.1937ZM19.5102 14.3353C18.8768 13.7568 18.1408 13.3018 17.3402 12.9937L16.1968 10.8587L19.0202 5.97035L23.0568 8.30368L19.5102 14.3353Z" fill="#D1C5CB"/>
</svg>
