<svg width="29" height="29" viewBox="0 0 29 29" fill="none" xmlns="http://www.w3.org/2000/svg">
<path d="M21.8435 12.527C21.8435 12.2176 21.7206 11.9209 21.5018 11.7021C21.283 11.4833 20.9863 11.3604 20.6768 11.3604H7.15517L9.83851 8.68869C10.0582 8.469 10.1816 8.17104 10.1816 7.86035C10.1816 7.54967 10.0582 7.25171 9.83851 7.03202C9.61882 6.81233 9.32086 6.68891 9.01017 6.68891C8.69949 6.68891 8.40153 6.81233 8.18184 7.03202L3.51517 11.6987C3.35329 11.8627 3.24363 12.0711 3.20002 12.2974C3.15642 12.5237 3.18083 12.7579 3.27017 12.9704C3.3577 13.1834 3.50633 13.3658 3.69733 13.4945C3.88834 13.6232 4.11318 13.6925 4.34351 13.6937H20.6768C20.9863 13.6937 21.283 13.5708 21.5018 13.352C21.7206 13.1332 21.8435 12.8364 21.8435 12.527ZM26.4168 16.7504C26.3293 16.5373 26.1807 16.3549 25.9897 16.2262C25.7987 16.0975 25.5738 16.0282 25.3435 16.027H9.01017C8.70075 16.027 8.40401 16.1499 8.18522 16.3687C7.96642 16.5875 7.84351 16.8843 7.84351 17.1937C7.84351 17.5031 7.96642 17.7999 8.18522 18.0186C8.40401 18.2374 8.70075 18.3604 9.01017 18.3604H22.5318L19.8485 21.032C19.7392 21.1405 19.6524 21.2695 19.5931 21.4117C19.5339 21.5538 19.5034 21.7063 19.5034 21.8604C19.5034 22.0144 19.5339 22.1669 19.5931 22.309C19.6524 22.4512 19.7392 22.5802 19.8485 22.6887C19.957 22.798 20.086 22.8848 20.2282 22.9441C20.3703 23.0033 20.5228 23.0338 20.6768 23.0338C20.8309 23.0338 20.9833 23.0033 21.1255 22.9441C21.2677 22.8848 21.3967 22.798 21.5052 22.6887L26.1718 18.022C26.3337 17.858 26.4434 17.6496 26.487 17.4233C26.5306 17.197 26.5062 16.9628 26.4168 16.7504Z" fill="#D1C5CB"/>
</svg>
