<svg width="29" height="29" viewBox="0 0 29 29" fill="none" xmlns="http://www.w3.org/2000/svg">
<path d="M14.8434 13.6937C14.6127 13.6937 14.3871 13.7621 14.1953 13.8903C14.0034 14.0185 13.8539 14.2007 13.7656 14.4139C13.6773 14.6271 13.6542 14.8616 13.6992 15.088C13.7442 15.3143 13.8553 15.5222 14.0185 15.6853C14.1816 15.8485 14.3895 15.9596 14.6158 16.0046C14.8421 16.0496 15.0767 16.0265 15.2899 15.9382C15.5031 15.8499 15.6853 15.7004 15.8135 15.5085C15.9417 15.3167 16.0101 15.0911 16.0101 14.8604C16.0101 14.5509 15.8872 14.2542 15.6684 14.0354C15.4496 13.8166 15.1528 13.6937 14.8434 13.6937ZM10.1768 9.02702C9.94601 9.02702 9.72045 9.09545 9.52859 9.22364C9.33674 9.35184 9.1872 9.53404 9.0989 9.74722C9.0106 9.9604 8.98749 10.195 9.03251 10.4213C9.07752 10.6476 9.18864 10.8555 9.3518 11.0186C9.51496 11.1818 9.72284 11.2929 9.94915 11.3379C10.1755 11.383 10.41 11.3598 10.6232 11.2715C10.8364 11.1832 11.0186 11.0337 11.1468 10.8419C11.275 10.65 11.3434 10.4244 11.3434 10.1937C11.3434 9.88427 11.2205 9.58752 11.0017 9.36873C10.7829 9.14994 10.4862 9.02702 10.1768 9.02702ZM20.6768 3.19369H9.01009C7.463 3.19369 5.97926 3.80827 4.8853 4.90223C3.79134 5.99619 3.17676 7.47992 3.17676 9.02702V20.6937C3.17676 22.2408 3.79134 23.7245 4.8853 24.8185C5.97926 25.9124 7.463 26.527 9.01009 26.527H20.6768C22.2239 26.527 23.7076 25.9124 24.8015 24.8185C25.8955 23.7245 26.5101 22.2408 26.5101 20.6937V9.02702C26.5101 7.47992 25.8955 5.99619 24.8015 4.90223C23.7076 3.80827 22.2239 3.19369 20.6768 3.19369ZM24.1768 20.6937C24.1768 21.6219 23.808 22.5122 23.1516 23.1686C22.4953 23.8249 21.605 24.1937 20.6768 24.1937H9.01009C8.08183 24.1937 7.1916 23.8249 6.53522 23.1686C5.87884 22.5122 5.51009 21.6219 5.51009 20.6937V9.02702C5.51009 8.09876 5.87884 7.20852 6.53522 6.55215C7.1916 5.89577 8.08183 5.52702 9.01009 5.52702H20.6768C21.605 5.52702 22.4953 5.89577 23.1516 6.55215C23.808 7.20852 24.1768 8.09876 24.1768 9.02702V20.6937ZM19.5101 18.3604C19.2793 18.3604 19.0538 18.4288 18.8619 18.557C18.6701 18.6852 18.5205 18.8674 18.4322 19.0806C18.3439 19.2937 18.3208 19.5283 18.3658 19.7546C18.4109 19.9809 18.522 20.1888 18.6851 20.352C18.8483 20.5151 19.0562 20.6263 19.2825 20.6713C19.5088 20.7163 19.7434 20.6932 19.9566 20.6049C20.1697 20.5166 20.3519 20.367 20.4801 20.1752C20.6083 19.9833 20.6768 19.7578 20.6768 19.527C20.6768 19.2176 20.5538 18.9209 20.3351 18.7021C20.1163 18.4833 19.8195 18.3604 19.5101 18.3604Z" fill="#D1C5CB"/>
</svg>
