<svg width="29" height="29" viewBox="0 0 29 29" fill="none" xmlns="http://www.w3.org/2000/svg">
<path d="M5.51025 14.8604C5.51025 15.1698 5.63317 15.4665 5.85196 15.6853C6.07076 15.9041 6.3675 16.027 6.67692 16.027H15.5319L12.8486 18.6987C12.7392 18.8072 12.6524 18.9362 12.5932 19.0784C12.534 19.2205 12.5035 19.373 12.5035 19.527C12.5035 19.681 12.534 19.8335 12.5932 19.9757C12.6524 20.1179 12.7392 20.2469 12.8486 20.3554C12.957 20.4647 13.0861 20.5515 13.2282 20.6107C13.3704 20.67 13.5229 20.7005 13.6769 20.7005C13.8309 20.7005 13.9834 20.67 14.1256 20.6107C14.2678 20.5515 14.3968 20.4647 14.5053 20.3554L19.1719 15.6887C19.2781 15.5777 19.3614 15.4469 19.4169 15.3037C19.5336 15.0197 19.5336 14.7011 19.4169 14.417C19.3614 14.2738 19.2781 14.143 19.1719 14.032L14.5053 9.36536C14.3965 9.25658 14.2673 9.1703 14.1252 9.11143C13.9831 9.05256 13.8308 9.02226 13.6769 9.02226C13.5231 9.02226 13.3708 9.05256 13.2286 9.11143C13.0865 9.1703 12.9574 9.25658 12.8486 9.36536C12.7398 9.47414 12.6535 9.60328 12.5947 9.7454C12.5358 9.88753 12.5055 10.0399 12.5055 10.1937C12.5055 10.3475 12.5358 10.4999 12.5947 10.642C12.6535 10.7841 12.7398 10.9133 12.8486 11.022L15.5319 13.6937H6.67692C6.3675 13.6937 6.07076 13.8166 5.85196 14.0354C5.63317 14.2542 5.51025 14.5509 5.51025 14.8604ZM20.6769 3.1937H9.01025C8.082 3.1937 7.19176 3.56244 6.53538 4.21882C5.879 4.8752 5.51025 5.76544 5.51025 6.6937V10.1937C5.51025 10.5031 5.63317 10.7999 5.85196 11.0187C6.07076 11.2374 6.3675 11.3604 6.67692 11.3604C6.98634 11.3604 7.28309 11.2374 7.50188 11.0187C7.72067 10.7999 7.84359 10.5031 7.84359 10.1937V6.6937C7.84359 6.38428 7.9665 6.08753 8.1853 5.86874C8.40409 5.64995 8.70083 5.52703 9.01025 5.52703H20.6769C20.9863 5.52703 21.2831 5.64995 21.5019 5.86874C21.7207 6.08753 21.8436 6.38428 21.8436 6.6937V23.027C21.8436 23.3364 21.7207 23.6332 21.5019 23.852C21.2831 24.0708 20.9863 24.1937 20.6769 24.1937H9.01025C8.70083 24.1937 8.40409 24.0708 8.1853 23.852C7.9665 23.6332 7.84359 23.3364 7.84359 23.027V19.527C7.84359 19.2176 7.72067 18.9209 7.50188 18.7021C7.28309 18.4833 6.98634 18.3604 6.67692 18.3604C6.3675 18.3604 6.07076 18.4833 5.85196 18.7021C5.63317 18.9209 5.51025 19.2176 5.51025 19.527V23.027C5.51025 23.9553 5.879 24.8455 6.53538 25.5019C7.19176 26.1583 8.082 26.527 9.01025 26.527H20.6769C21.6052 26.527 22.4954 26.1583 23.1518 25.5019C23.8082 24.8455 24.1769 23.9553 24.1769 23.027V6.6937C24.1769 5.76544 23.8082 4.8752 23.1518 4.21882C22.4954 3.56244 21.6052 3.1937 20.6769 3.1937Z" fill="#D1C5CB"/>
</svg>
