<svg width="29" height="29" viewBox="0 0 29 29" fill="none" xmlns="http://www.w3.org/2000/svg">
<path d="M7.84359 16.027H3.17692C2.8675 16.027 2.57076 16.1499 2.35196 16.3687C2.13317 16.5875 2.01025 16.8843 2.01025 17.1937V26.527C2.01025 26.8364 2.13317 27.1332 2.35196 27.352C2.57076 27.5708 2.8675 27.6937 3.17692 27.6937H7.84359C8.15301 27.6937 8.44975 27.5708 8.66854 27.352C8.88734 27.1332 9.01025 26.8364 9.01025 26.527V17.1937C9.01025 16.8843 8.88734 16.5875 8.66854 16.3687C8.44975 16.1499 8.15301 16.027 7.84359 16.027ZM6.67692 25.3604H4.34359V18.3604H6.67692V25.3604ZM26.5103 11.3604H21.8436C21.5342 11.3604 21.2374 11.4833 21.0186 11.7021C20.7998 11.9209 20.6769 12.2176 20.6769 12.527V26.527C20.6769 26.8364 20.7998 27.1332 21.0186 27.352C21.2374 27.5708 21.5342 27.6937 21.8436 27.6937H26.5103C26.8197 27.6937 27.1164 27.5708 27.3352 27.352C27.554 27.1332 27.6769 26.8364 27.6769 26.527V12.527C27.6769 12.2176 27.554 11.9209 27.3352 11.7021C27.1164 11.4833 26.8197 11.3604 26.5103 11.3604ZM25.3436 25.3604H23.0103V13.6937H25.3436V25.3604ZM17.1769 2.02702H12.5103C12.2008 2.02702 11.9041 2.14994 11.6853 2.36873C11.4665 2.58752 11.3436 2.88427 11.3436 3.19369V26.527C11.3436 26.8364 11.4665 27.1332 11.6853 27.352C11.9041 27.5708 12.2008 27.6937 12.5103 27.6937H17.1769C17.4863 27.6937 17.7831 27.5708 18.0019 27.352C18.2207 27.1332 18.3436 26.8364 18.3436 26.527V3.19369C18.3436 2.88427 18.2207 2.58752 18.0019 2.36873C17.7831 2.14994 17.4863 2.02702 17.1769 2.02702ZM16.0103 25.3604H13.6769V4.36035H16.0103V25.3604Z" fill="#D1C5CB"/>
</svg>
