<svg width="25" height="24" viewBox="0 0 25 24" fill="none" xmlns="http://www.w3.org/2000/svg">
<path d="M13.8687 12L18.1687 7.71C18.357 7.5217 18.4628 7.2663 18.4628 7C18.4628 6.7337 18.357 6.47831 18.1687 6.29C17.9804 6.1017 17.725 5.99591 17.4587 5.99591C17.1924 5.99591 16.937 6.1017 16.7487 6.29L12.4587 10.59L8.16868 6.29C7.98038 6.1017 7.72498 5.99591 7.45868 5.99591C7.19238 5.99591 6.93698 6.1017 6.74868 6.29C6.56038 6.47831 6.45459 6.7337 6.45459 7C6.45459 7.2663 6.56038 7.5217 6.74868 7.71L11.0487 12L6.74868 16.29C6.65495 16.383 6.58056 16.4936 6.52979 16.6154C6.47902 16.7373 6.45288 16.868 6.45288 17C6.45288 17.132 6.47902 17.2627 6.52979 17.3846C6.58056 17.5064 6.65495 17.617 6.74868 17.71C6.84164 17.8037 6.95224 17.8781 7.0741 17.9289C7.19596 17.9797 7.32667 18.0058 7.45868 18.0058C7.59069 18.0058 7.7214 17.9797 7.84326 17.9289C7.96512 17.8781 8.07572 17.8037 8.16868 17.71L12.4587 13.41L16.7487 17.71C16.8416 17.8037 16.9522 17.8781 17.0741 17.9289C17.196 17.9797 17.3267 18.0058 17.4587 18.0058C17.5907 18.0058 17.7214 17.9797 17.8433 17.9289C17.9651 17.8781 18.0757 17.8037 18.1687 17.71C18.2624 17.617 18.3368 17.5064 18.3876 17.3846C18.4383 17.2627 18.4645 17.132 18.4645 17C18.4645 16.868 18.4383 16.7373 18.3876 16.6154C18.3368 16.4936 18.2624 16.383 18.1687 16.29L13.8687 12Z" fill="#BEB3B9"/>
</svg>
