<svg width="18" height="26" viewBox="0 0 18 26" fill="none" xmlns="http://www.w3.org/2000/svg">
<g clip-path="url(#clip0_157_439)">
<path d="M10.5779 22.8002C10.5697 22.8934 10.5626 22.9714 10.5473 23.0673C10.537 23.1056 10.5347 23.126 10.5301 23.1616C10.5233 23.226 10.5186 23.2751 10.5049 23.3406C10.493 23.3772 10.49 23.3976 10.4841 23.4331C10.4662 23.5431 10.4512 23.6381 10.427 23.7488C10.4098 23.7871 10.4019 23.8096 10.3984 23.8455C10.386 23.9226 10.3745 23.9879 10.3563 24.0685C10.2191 24.1621 10.1297 24.1466 10.0862 23.9818C10.0482 23.838 9.95806 23.8199 9.85718 23.9281C9.82124 23.9667 9.81111 24.0237 9.77237 24.0602C9.70118 24.1272 9.62778 24.1268 9.60216 24.0263C9.56703 23.8885 9.53499 23.7481 9.51729 23.6072C9.50127 23.4797 9.58401 23.4345 9.70493 23.4897C9.75211 23.5112 9.77712 23.5648 9.85166 23.5839C9.80904 23.4866 9.74675 23.4302 9.66602 23.3984C9.52922 23.3444 9.40532 23.4345 9.40752 23.5818C9.4082 23.6276 9.42902 23.6691 9.43981 23.7128C9.46179 23.8018 9.48718 23.8997 9.39622 23.9598C9.31093 24.0161 9.2421 23.9525 9.17966 23.8956C9.16378 23.8811 9.14924 23.8622 9.11754 23.8719C9.11447 23.9757 9.14953 24.1211 8.94 24.0618C8.92487 24.0659 8.92626 24.0625 8.92446 24.0622C8.89614 24.0492 8.87085 24.0499 8.841 24.0811C8.83475 24.0933 8.82969 24.0884 8.83294 24.0898C8.45632 24.1654 8.07471 24.1315 7.67434 24.098C7.49573 23.5364 7.42279 22.9713 7.37232 22.3824C7.56785 22.295 7.7484 22.4295 7.94101 22.3941C7.98636 22.3858 7.99387 22.4525 7.99011 22.5013C7.96488 22.8286 7.99111 22.8593 8.32136 22.8992C8.34365 22.9018 8.36544 22.9072 8.40147 22.9212C8.48111 22.9841 8.47311 23.0627 8.47928 23.1363C8.48776 23.2376 8.51426 23.3274 8.61347 23.3791C8.63117 23.3352 8.59583 23.3083 8.58535 23.2747C8.5688 23.2217 8.56082 23.168 8.60936 23.1308C8.65934 23.0925 8.70699 23.1232 8.75324 23.1498C8.81893 23.1876 8.86737 23.2895 8.96323 23.2242C9.02433 23.1825 9.03519 23.1113 9.01647 23.0415C8.99005 22.943 8.91661 22.8975 8.82177 22.8804C8.75612 22.8686 8.68764 22.874 8.61088 22.8392C8.56386 22.5961 8.38868 22.3855 8.49848 22.1172C8.3662 22.1173 8.32309 22.2183 8.25213 22.2739C8.2001 22.3147 8.15091 22.3854 8.08227 22.3604C8.0019 22.331 8.03186 22.2466 8.03963 22.1821C8.05103 22.0876 8.03159 22.0034 7.97046 21.9305C7.8616 21.8005 7.70306 21.8056 7.55927 21.9318C7.47003 22.0102 7.4475 22.1483 7.30794 22.1973C7.22603 22.1588 7.15877 22.1149 7.08387 22.058C7.29641 21.9298 7.45629 21.743 7.62738 21.57C7.67882 21.518 7.74428 21.4755 7.77389 21.3689C7.50042 21.5241 7.26325 21.276 6.992 21.3321C6.98032 21.3218 6.97172 21.3061 6.97528 21.2979C6.90413 21.1541 6.98816 21.0461 7.0403 20.933C7.06545 20.8784 7.10168 20.8205 7.05665 20.7655C7.00405 20.7012 6.93123 20.7225 6.87277 20.7551C6.6685 20.8689 6.42862 20.9124 6.27179 21.1214C6.17049 21.2564 5.99328 21.1658 5.83533 21.1786C5.69862 21.1735 5.57731 21.1711 5.43674 21.1627C5.27904 21.1218 5.1376 21.1505 4.98212 21.1343C4.84466 21.131 4.72325 21.1298 4.58267 21.1223C4.36661 21.0687 4.16602 21.1102 3.95061 21.0878C3.8266 21.0842 3.71993 21.0836 3.59423 21.0769C3.37838 21.0231 3.17773 21.0654 2.96243 21.0419C2.83851 21.0376 2.7319 21.0366 2.6061 21.0301C2.38994 20.9788 2.1894 21.0198 1.97409 20.9963C1.8352 20.9913 1.71359 20.9897 1.57302 20.9812C1.38591 20.9404 1.21536 20.9704 1.02977 20.9521C0.935913 20.9486 0.858797 20.9479 0.763236 20.9415C0.640949 20.9031 0.536809 20.901 0.42377 20.9444C0.394494 21.1401 0.403984 21.3328 0.265116 21.4977C0.113852 21.3508 0.112248 21.1627 0.10839 20.9888C0.0946773 20.3703 0.0958728 19.7514 0.0913787 19.1326C0.090345 18.9905 0.105489 18.8485 0.0277318 18.7147C0.000506611 18.6679 -0.0099979 18.5869 0.0114307 18.5398C0.109873 18.3235 0.103745 18.0851 0.167866 17.8627C0.181752 17.8145 0.1953 17.7468 0.25878 17.7494C0.318366 17.7519 0.331445 17.8154 0.34637 17.8657C0.413543 18.092 0.420491 18.3259 0.429567 18.6192C0.778932 18.1746 1.09897 17.7672 1.43086 17.349C1.48127 16.9421 1.44902 16.545 1.46143 16.1487C1.46388 16.0706 1.43001 15.9646 1.52686 15.9305C1.61057 15.901 1.67917 15.9672 1.74197 16.0522C1.75538 16.3137 1.75835 16.558 1.75634 16.8235C1.76334 16.8586 1.77857 16.866 1.80932 16.8641C1.83199 16.8438 1.84197 16.8273 1.86368 16.802C1.92436 16.7456 1.98312 16.7605 2.04193 16.7632C2.28897 16.7744 2.35186 16.7027 2.30245 16.4661C2.28876 16.4006 2.26698 16.337 2.30315 16.2566C2.30995 16.2273 2.3152 16.2146 2.33689 16.201C2.46583 16.1284 2.51464 16.2517 2.61414 16.2992C2.59531 16.1935 2.50691 16.1552 2.4608 16.0711C2.93948 15.4324 3.42107 14.807 3.90907 14.1868C3.99303 14.0801 4.03196 13.9754 4.03052 13.8383C4.02753 13.5519 4.04269 13.2653 4.0566 12.9606C4.06691 12.8922 4.06539 12.8418 4.06879 12.7764C4.07837 12.6069 4.08695 12.4525 4.10139 12.2806C4.10904 12.243 4.11075 12.2228 4.11379 12.1876C4.13389 11.9886 4.15259 11.8047 4.1807 11.6031C4.26997 11.4372 4.38102 11.3089 4.45145 11.1531C4.48022 11.0895 4.55887 11.0271 4.63663 11.078C4.70651 11.1238 4.69468 11.2058 4.66388 11.2813C4.52377 11.6248 4.52445 11.6251 4.81032 11.8883C4.82496 11.9205 4.82906 11.9404 4.83081 11.9754C4.82904 12.0113 4.83045 12.032 4.83492 12.068C4.85027 12.1902 4.86326 12.2969 4.87383 12.4239C4.87482 12.4949 4.87246 12.546 4.88029 12.6118C4.89129 12.6923 4.89984 12.7578 4.90577 12.8396C4.91472 12.869 4.92912 12.8749 4.95694 12.867C5.04542 12.7552 5.12333 12.6499 5.21452 12.5379C5.32754 12.4691 5.4372 12.5178 5.55709 12.5056C5.58256 12.5136 5.59209 12.5187 5.61143 12.5367C5.66112 12.6258 5.63361 12.7299 5.72738 12.808C5.7787 12.6332 5.73997 12.3992 6.03027 12.4281C5.96813 12.3226 5.78924 12.3909 5.80005 12.2412C5.80812 12.1293 5.9265 12.078 5.96935 11.9821C5.93754 11.8957 5.76832 11.9618 5.80322 11.804C6.26157 11.2081 6.71059 10.6244 7.16714 10.0467C7.26932 9.91742 7.3316 9.78657 7.33624 9.6189C7.35448 8.96079 7.56367 8.32661 7.58268 7.66836C7.58769 7.49458 7.7341 7.44555 7.84149 7.34039C7.92769 7.25321 8.00265 7.31548 8.07763 7.3366C8.21768 7.37604 8.32649 7.33133 8.41388 7.22022C8.47875 7.13774 8.51121 7.04854 8.45365 6.94952C8.38022 6.82319 8.265 6.78734 8.12724 6.80612C8.06125 6.81512 7.99506 6.83634 7.91531 6.79758C7.90004 6.78101 7.89857 6.77239 7.90359 6.75239C7.96491 6.58645 8.15035 6.52353 8.19762 6.32798C8.04801 6.36764 7.92456 6.34866 7.79518 6.31012C7.58599 6.24781 7.49628 6.31639 7.35798 6.59779C6.86291 6.77304 6.37576 6.93472 5.86328 7.1048C5.86328 6.85611 5.86661 6.64567 5.86182 6.43541C5.85957 6.33657 5.92786 6.28878 5.98364 6.2304C6.66382 5.51846 7.3432 4.80573 8.02667 4.09701C8.10932 4.01131 8.15809 3.92572 8.16713 3.8038C8.25284 2.64736 8.49604 1.52298 8.86365 0.408405C9.04579 0.314755 9.09962 0.417115 9.0743 0.558018C9.04999 0.693369 9.11774 0.690308 9.21592 0.701833C9.23113 0.718797 9.23461 0.72556 9.23728 0.743719C9.2375 0.861011 9.30838 0.945675 9.32678 1.06231C9.34805 1.13048 9.36633 1.18355 9.3852 1.25364C9.37783 1.30785 9.40856 1.33449 9.41384 1.38141C9.62493 2.1276 9.76245 2.87458 9.81047 3.63598C9.8251 3.86809 9.90879 4.04163 10.0713 4.20718C10.7339 4.88239 11.3804 5.57372 12.0427 6.24939C12.1863 6.39594 12.1341 6.55761 12.1377 6.71502C12.1466 7.09864 12.1404 7.10001 11.774 6.98487C11.2183 6.81021 10.6632 6.63363 10.0717 6.44642C10.1036 6.75813 10.1317 7.04018 10.1624 7.32195C10.1655 7.35005 10.1792 7.39531 10.1973 7.40066C10.4532 7.47633 10.4097 7.70277 10.4336 7.88678C10.4646 8.12566 10.475 8.36728 10.5301 8.62145C10.5357 8.72934 10.4809 8.77493 10.412 8.81302C10.2394 8.90838 10.1952 9.10615 10.0778 9.24613C10.052 9.27697 10.0586 9.33331 10.1184 9.37836C10.2216 9.20126 10.2988 8.95814 10.5977 9.11437C10.6151 9.13028 10.6185 9.13944 10.6191 9.16298C10.5927 9.20658 10.5718 9.239 10.5398 9.25943C10.2101 9.46978 10.3358 9.77391 10.6314 9.8538C10.6531 9.85964 10.6725 9.87178 10.702 9.89619C11.4257 10.8087 12.1379 11.7104 12.8502 12.6122C12.9147 12.6939 12.9792 12.7756 13.0741 12.8957C13.1139 12.4973 13.1471 12.1432 13.1853 11.7896C13.2144 11.5195 13.2603 11.2519 13.345 10.9933C13.3768 10.8964 13.398 10.7593 13.5236 10.7633C13.6302 10.7667 13.6561 10.893 13.6871 10.985C13.8183 11.3739 13.8534 11.7807 13.895 12.185C13.9522 12.7401 13.9685 13.2982 13.9731 13.8561C13.9741 13.9847 14.0097 14.0839 14.0889 14.1842C14.7875 15.069 15.4816 15.9575 16.184 16.8602C16.2081 16.8769 16.2236 16.8727 16.2418 16.8501C16.245 16.5334 16.2433 16.2284 16.2422 15.9017C16.2141 15.8507 16.2069 15.8159 16.2262 15.7601C16.2349 15.7434 16.2398 15.7479 16.2368 15.7465C16.3259 15.679 16.4227 15.6735 16.5422 15.7337C16.5605 15.7456 16.5551 15.7481 16.5573 15.7461C16.5808 15.7768 16.5883 15.8116 16.5634 15.8638C16.5522 16.3078 16.5523 16.7376 16.554 17.1673C16.5543 17.2339 16.5385 17.305 16.5846 17.3639C16.9015 17.7692 17.2191 18.174 17.5653 18.6157C17.5924 18.3512 17.5764 18.1328 17.6352 17.9242C17.6548 17.8545 17.6596 17.7511 17.7475 17.7515C17.8193 17.7518 17.8332 17.8497 17.8462 17.9134C17.8865 18.1106 17.8914 18.3156 17.988 18.4999C18.0038 18.53 18.0023 18.5766 17.9932 18.6113C17.8138 19.293 17.9484 19.9877 17.909 20.675C17.8964 20.8933 17.8987 21.1129 17.8394 21.3251C17.8228 21.3842 17.8207 21.4777 17.7334 21.473C17.6671 21.4694 17.6586 21.3887 17.6369 21.3339C17.6342 21.327 17.6355 21.3182 17.6321 21.3119C17.5696 21.1953 17.6598 21.0057 17.5252 20.9491C17.4124 20.9016 17.2612 20.9446 17.1272 20.9509C15.1643 21.0433 13.2014 21.1359 11.2385 21.2295C10.9886 21.2414 10.9849 21.2588 11.1222 21.4882C11.1696 21.5675 11.3184 21.6833 11.0655 21.7224C11.0134 21.8181 11.0485 21.935 10.9495 22.0256C10.6676 22.1715 10.5898 22.4084 10.5914 22.7076C10.5819 22.7445 10.5802 22.7647 10.5779 22.8002Z" fill="white"/>
<path d="M8.43842 22.9495C8.30735 22.9427 8.18509 22.9818 8.07471 22.9271C7.87146 22.8263 7.83888 22.6869 7.97166 22.4076C7.76038 22.502 7.5874 22.4294 7.39483 22.3624C7.35256 22.3166 7.32889 22.2714 7.2993 22.2145C7.36651 22.1018 7.43762 21.9992 7.51326 21.9001C7.62554 21.753 7.78156 21.7228 7.92768 21.8113C8.07517 21.9006 8.15547 22.047 8.08304 22.235C8.07303 22.261 8.07236 22.2906 8.10107 22.3467C8.19168 22.2561 8.28279 22.1661 8.37269 22.0748C8.4239 22.0228 8.4722 21.9847 8.54169 22.0522C8.60402 22.1126 8.60248 22.1656 8.54054 22.2224C8.48556 22.2729 8.45636 22.3247 8.51864 22.3941C8.61805 22.5047 8.60623 22.6428 8.60256 22.7973C8.57929 22.8914 8.51404 22.9171 8.43842 22.9495Z" fill="white"/>
<path d="M8.92501 24.083C9.04454 24.0438 9.12926 24.0045 9.0354 23.8623C9.0065 23.8185 9.01928 23.7732 9.06638 23.7478C9.11825 23.7199 9.14852 23.7563 9.17602 23.7942C9.2023 23.8305 9.22634 23.8691 9.25662 23.9016C9.28855 23.936 9.33069 23.9578 9.37681 23.931C9.41363 23.9097 9.4133 23.8679 9.41131 23.8305C9.40973 23.8008 9.41008 23.7663 9.39561 23.7427C9.29576 23.5799 9.30995 23.4255 9.47823 23.3387C9.67528 23.2371 9.79388 23.397 9.90954 23.5262C9.95588 23.578 9.96504 23.6388 9.90736 23.685C9.83596 23.742 9.80448 23.6777 9.76951 23.6275C9.72325 23.5611 9.6737 23.4602 9.58139 23.5184C9.49991 23.5698 9.59203 23.6536 9.59851 23.7239C9.60187 23.7604 9.61985 23.7956 9.63151 23.8313C9.65592 23.906 9.58826 24.0318 9.67959 24.0525C9.7967 24.079 9.74597 23.9281 9.79575 23.8739C9.87223 23.7905 9.98531 23.7768 10.0824 23.7829C10.1944 23.7898 10.1487 23.8845 10.1371 23.9585C10.1135 24.1102 10.2279 24.0795 10.3315 24.0836C10.3514 24.1469 10.3072 24.1553 10.261 24.1554C9.93422 24.156 9.60733 24.152 9.2806 24.1575C9.20435 24.1588 9.1629 24.1061 9.0824 24.069C9.03492 24.4937 9.06521 24.91 9.04405 25.3393C9.02946 25.3595 9.01675 25.3642 8.98583 25.3598C8.95344 24.9339 8.93927 24.517 8.92501 24.083Z" fill="white"/>
<path d="M5.59343 12.5522C5.48302 12.584 5.37299 12.5619 5.24546 12.5323C5.4128 12.2887 5.59763 12.0462 5.79622 11.7966C5.8205 11.8577 5.84247 11.9054 5.9261 11.8695C5.97967 11.8464 6.03072 11.8574 6.06172 11.9103C6.0979 11.9719 6.04518 12.0056 6.01179 12.0429C5.98198 12.0762 5.94732 12.1052 5.91819 12.139C5.88567 12.1768 5.82316 12.2051 5.84097 12.2644C5.86116 12.3317 5.92862 12.3036 5.97624 12.3064C6.057 12.3113 6.14397 12.3359 6.14206 12.4194C6.14004 12.5078 6.04189 12.4907 5.98019 12.4862C5.85068 12.4767 5.80634 12.5353 5.81682 12.6584C5.82449 12.7486 5.7951 12.8309 5.74815 12.9099C5.5891 12.8426 5.58575 12.7095 5.59343 12.5522Z" fill="white"/>
<path d="M5.83646 21.1829C6.05741 21.1699 6.24353 21.064 6.42828 20.9142C6.56798 20.801 6.75928 20.7532 6.92572 20.6724C7.00679 20.633 7.06661 20.653 7.12252 20.7178C7.17781 20.7818 7.15855 20.8436 7.12081 20.9032C7.05245 21.0113 6.99105 21.1212 6.98325 21.2718C6.8146 21.1866 6.63068 21.2428 6.4562 21.226C6.25585 21.2067 6.05419 21.2013 5.83646 21.1829Z" fill="white"/>
<path d="M6.97092 21.3315C7.1637 21.2732 7.34179 21.2592 7.50924 21.3788C7.59616 21.4409 7.64101 21.3524 7.69686 21.3106C7.75335 21.2683 7.80921 21.2674 7.85348 21.3237C7.89788 21.3802 7.85229 21.4206 7.81597 21.4575C7.64874 21.6274 7.47289 21.7896 7.31617 21.9688C7.24398 22.0513 7.1598 21.9758 7.0851 22.0338C7.06044 22.0384 7.04471 22.0319 7.03029 22.012C7.05196 21.8141 7.00052 21.6527 6.88318 21.4992C6.91228 21.4369 6.93692 21.3891 6.97092 21.3315Z" fill="white"/>
<path d="M7.89443 6.80447C7.97358 6.77364 8.04523 6.75386 8.11817 6.74249C8.28798 6.716 8.42471 6.76543 8.51557 6.92241C8.59379 7.05757 8.53746 7.16252 8.45553 7.26999C8.34555 7.41427 8.20515 7.44924 8.04106 7.39633C7.98676 7.37882 7.94783 7.32039 7.86446 7.32561C7.86073 7.1566 7.87413 6.98797 7.89443 6.80447Z" fill="white"/>
<path d="M4.82349 11.8812C4.47515 11.7661 4.4154 11.5935 4.60876 11.2832C4.64618 11.2232 4.68537 11.1424 4.60995 11.112C4.53218 11.0807 4.45374 11.181 4.45165 11.2341C4.44481 11.4073 4.33157 11.4871 4.20301 11.5793C4.19347 11.3644 4.24965 11.1537 4.32081 10.9471C4.34966 10.8634 4.37924 10.7524 4.48431 10.7559C4.58687 10.7594 4.61349 10.8725 4.64302 10.955C4.74788 11.2478 4.78749 11.5549 4.82349 11.8812Z" fill="white"/>
<path d="M1.75835 16.0525C1.65588 16.0898 1.63002 15.9653 1.52436 15.9657C1.48283 16.1568 1.51591 16.3544 1.50367 16.5488C1.48744 16.8067 1.54061 17.0674 1.45801 17.3307C1.44433 16.9161 1.46493 16.4928 1.43898 16.0724C1.42711 15.8803 1.44556 15.6962 1.46499 15.4927C1.53784 15.418 1.62467 15.4519 1.71162 15.4292C1.75511 15.6334 1.82836 15.8301 1.75835 16.0525Z" fill="white"/>
<path d="M7.3682 6.61236C7.35708 6.29468 7.59044 6.13501 7.87488 6.26742C7.96538 6.30955 8.02806 6.33951 8.11216 6.26663C8.16433 6.22142 8.22471 6.23526 8.26534 6.2945C8.30079 6.34618 8.28459 6.39637 8.2447 6.43619C8.14489 6.53581 8.04235 6.63265 7.92544 6.73578C7.92575 6.45531 7.9259 6.45582 7.63969 6.54279C7.55585 6.56827 7.47087 6.58998 7.3682 6.61236Z" fill="white"/>
<path d="M10.616 9.10615C10.3962 9.09887 10.2083 9.11387 10.2118 9.40695C10.2122 9.44263 10.181 9.47582 10.1398 9.48133C10.0883 9.48822 10.0574 9.45095 10.0322 9.41518C9.98004 9.34125 9.9639 9.2341 10.0278 9.18898C10.2033 9.065 10.1867 8.76321 10.4551 8.73108C10.4742 8.72879 10.4883 8.68461 10.5168 8.65002C10.5593 8.7905 10.5897 8.94087 10.616 9.10615Z" fill="white"/>
<path d="M10.709 9.88857C10.4897 9.91775 10.3238 9.80327 10.2848 9.59853C10.2458 9.39398 10.3922 9.2576 10.599 9.18079C10.6457 9.4083 10.6751 9.63929 10.709 9.88857Z" fill="white"/>
<path d="M2.29751 16.249C2.32745 16.3144 2.33931 16.3875 2.36044 16.4577C2.44041 16.7233 2.30533 16.8795 2.03752 16.8272C1.9947 16.8189 1.95279 16.8058 1.893 16.7941C2.01159 16.6139 2.14764 16.4346 2.29751 16.249Z" fill="white"/>
<path d="M9.229 0.694159C9.15294 0.684862 9.10288 0.833283 9.01353 0.736942C8.93517 0.652456 9.02542 0.607071 9.04068 0.543035C9.06667 0.434026 9.00093 0.397368 8.88874 0.393366C8.88441 0.266169 8.92881 0.149241 8.998 -1.00976e-08C9.1233 0.23052 9.14945 0.463908 9.229 0.694159Z" fill="white"/>
<path d="M7.65733 24.1047C8.03453 24.0865 8.41377 24.0867 8.81456 24.0889C8.8245 24.1088 8.81314 24.1419 8.80124 24.1421C8.42045 24.1485 8.03891 24.1902 7.65733 24.1047Z" fill="white"/>
<path d="M6.87318 21.4946C7.0148 21.6213 7.2126 21.7354 7.03527 21.9832C6.93675 21.9096 7.00172 21.7169 6.81405 21.6763C6.77233 21.6673 6.82053 21.559 6.87318 21.4946Z" fill="white"/>
<path d="M16.2946 15.3974C16.2884 15.343 16.2876 15.2972 16.2999 15.2554C16.3144 15.2059 16.3337 15.1454 16.3945 15.1432C16.4561 15.1411 16.4797 15.2022 16.4938 15.25C16.517 15.3285 16.5273 15.4108 16.5388 15.5087C16.4204 15.5614 16.3834 15.4446 16.2946 15.3974Z" fill="white"/>
<path d="M2.44364 16.0613C2.54131 16.0744 2.5876 16.1458 2.64647 16.2002C2.70091 16.2506 2.73231 16.3018 2.66446 16.3677C2.58028 16.4494 2.57337 16.3434 2.53818 16.3146C2.48754 16.2732 2.45081 16.213 2.36273 16.2001C2.37504 16.1537 2.40337 16.1101 2.44364 16.0613Z" fill="white"/>
<path d="M1.72827 15.4182C1.66958 15.5454 1.58229 15.4906 1.48746 15.4765C1.47165 15.457 1.47089 15.4371 1.4764 15.4036C1.49256 15.3679 1.50239 15.3459 1.50589 15.3094C1.5111 15.2711 1.51563 15.2448 1.53114 15.2107C1.5661 15.1873 1.59224 15.1809 1.64002 15.1904C1.70935 15.2565 1.72042 15.3292 1.72827 15.4182Z" fill="white"/>
<path d="M3.94959 21.093C4.13878 21.0236 4.34424 21.0356 4.55664 21.1009C4.36343 21.1466 4.1653 21.0979 3.94959 21.093Z" fill="white"/>
<path d="M2.96112 21.0468C3.15063 20.9804 3.35612 20.9891 3.56836 21.055C3.37582 21.0655 3.17649 21.0602 2.96112 21.0468Z" fill="white"/>
<path d="M1.97256 21.0013C2.16197 20.9343 2.36721 20.9447 2.57959 21.0089C2.38733 21.0195 2.1879 21.0146 1.97256 21.0013Z" fill="white"/>
<path d="M16.5608 15.7302C16.4652 15.7458 16.3699 15.7461 16.2542 15.7456C16.2395 15.6638 16.2451 15.5829 16.26 15.4874C16.3992 15.4531 16.4287 15.5932 16.5319 15.6455C16.5489 15.6765 16.555 15.6957 16.5608 15.7302Z" fill="white"/>
<path d="M1.02954 20.9558C1.1875 20.8838 1.36281 20.9033 1.54614 20.9594C1.3847 20.9702 1.21542 20.9663 1.02954 20.9558Z" fill="white"/>
<path d="M16.5459 15.641C16.4084 15.6781 16.3608 15.5714 16.2835 15.4802C16.2696 15.4534 16.2699 15.4336 16.2769 15.4005C16.3992 15.3603 16.4462 15.4508 16.5203 15.5228C16.5395 15.5589 16.5442 15.5917 16.5459 15.641Z" fill="white"/>
<path d="M4.98175 21.1403C5.11077 21.0671 5.25645 21.0821 5.40991 21.142C5.27743 21.154 5.13748 21.1513 4.98175 21.1403Z" fill="white"/>
<path d="M0.435004 20.9489C0.495887 20.7782 0.621259 20.8866 0.73877 20.9208C0.64815 20.9378 0.551437 20.9397 0.435004 20.9489Z" fill="white"/>
<path d="M8.96318 25.3706C8.98019 25.351 8.99263 25.3512 9.02368 25.3531C9.04436 25.4618 9.04645 25.5689 9.04639 25.6945C9.03007 25.7301 9.01184 25.7368 8.9781 25.7247C8.96359 25.6066 8.9611 25.4985 8.96318 25.3706Z" fill="white"/>
<path d="M10.9533 22.0333C10.9652 21.9352 10.9924 21.8347 11.0337 21.728C11.0084 21.8214 11.0923 21.9531 10.9533 22.0333Z" fill="white"/>
<path d="M9.33203 1.06189C9.25768 0.988575 9.21242 0.889432 9.22514 0.763672C9.29605 0.842964 9.30705 0.94747 9.33203 1.06189Z" fill="white"/>
<path d="M8.96262 25.7339C8.98328 25.7147 9.00065 25.7147 9.03105 25.7139C9.05282 25.8033 9.07804 25.8956 9.01162 26C8.92959 25.9189 8.9693 25.8299 8.96262 25.7339Z" fill="white"/>
<path d="M4.8894 12.6159C4.81576 12.5853 4.82224 12.5271 4.85972 12.4543C4.87956 12.4973 4.88787 12.5507 4.8894 12.6159Z" fill="white"/>
<path d="M4.0625 12.7726C4.12501 12.8106 4.11884 12.8666 4.07483 12.9343C4.06018 12.8901 4.05779 12.837 4.0625 12.7726Z" fill="white"/>
<path d="M16.2219 15.748C16.2388 15.7777 16.2426 15.812 16.2446 15.8636C16.179 15.8524 16.1169 15.8236 16.2219 15.748Z" fill="white"/>
<path d="M16.5631 15.8721C16.552 15.8449 16.5527 15.8111 16.5564 15.7606C16.5988 15.7799 16.7017 15.8075 16.5631 15.8721Z" fill="white"/>
<path d="M4.84326 12.0733C4.7959 12.0679 4.77795 12.0432 4.81899 11.9961C4.83532 12.0144 4.84227 12.0382 4.84326 12.0733Z" fill="white"/>
<path d="M9.41943 1.38176C9.37775 1.37261 9.36689 1.33853 9.37949 1.28369C9.39818 1.30326 9.41069 1.33599 9.41943 1.38176Z" fill="white"/>
<path d="M4.95106 12.8625C4.96761 12.8911 4.95882 12.9203 4.92644 12.9249C4.89099 12.9299 4.87716 12.907 4.89352 12.864C4.91314 12.8588 4.92386 12.8616 4.95106 12.8625Z" fill="white"/>
<path d="M1.80334 16.8599C1.82059 16.8914 1.80656 16.9158 1.77496 16.917C1.7406 16.9183 1.72904 16.8946 1.74255 16.8532C1.76189 16.8495 1.7733 16.8544 1.80334 16.8599Z" fill="white"/>
<path d="M4.10882 12.1803C4.14742 12.1942 4.15461 12.2203 4.11742 12.258C4.10547 12.2387 4.10413 12.2135 4.10882 12.1803Z" fill="white"/>
<path d="M1.65649 15.1844C1.63322 15.1996 1.60703 15.2017 1.56113 15.2034C1.561 15.1285 1.59937 15.1214 1.65649 15.1844Z" fill="white"/>
<path d="M1.4976 15.3069C1.55053 15.3274 1.54802 15.3574 1.49355 15.3889C1.48426 15.3661 1.48675 15.3414 1.4976 15.3069Z" fill="white"/>
<path d="M8.8456 24.0922C8.83252 24.0373 8.83333 23.9822 8.91797 24.0482C8.90096 24.0717 8.87921 24.0805 8.8456 24.0922Z" fill="white"/>
<path d="M10.4044 23.8481C10.3537 23.8298 10.3543 23.8002 10.4069 23.7672C10.4159 23.789 10.4136 23.8133 10.4044 23.8481Z" fill="white"/>
<path d="M10.4881 23.439C10.4379 23.4234 10.4442 23.3947 10.4861 23.3606C10.4957 23.3807 10.4953 23.4047 10.4881 23.439Z" fill="white"/>
<path d="M10.5348 23.1677C10.4852 23.1537 10.4876 23.1251 10.5293 23.0894C10.54 23.1093 10.5409 23.1334 10.5348 23.1677Z" fill="white"/>
<path d="M10.5825 22.8085C10.5449 22.7947 10.5348 22.7689 10.5731 22.7302C10.5853 22.7496 10.5868 22.7751 10.5825 22.8085Z" fill="white"/>
<path d="M16.2353 16.8527C16.272 16.8555 16.2832 16.8796 16.2613 16.9045C16.2405 16.9282 16.215 16.9253 16.1923 16.8872C16.2013 16.8728 16.2129 16.8699 16.2353 16.8527Z" fill="white"/>
<path d="M9.18743 8.42457C8.93873 8.45943 8.88339 8.29768 8.87631 8.11508C8.87115 7.98191 8.8554 7.89726 8.69418 7.90872C8.63138 7.91319 8.56141 7.88478 8.50202 7.85601C8.27094 7.74409 8.25005 7.61373 8.429 7.4321C8.55543 7.30377 8.68164 7.17519 8.81009 7.04895C8.85024 7.00949 8.88905 6.94244 8.95888 6.99269C9.01785 7.03513 9.01917 7.09782 8.97286 7.15038C8.89382 7.24012 8.97656 7.30586 8.98667 7.38502C9.02108 7.65469 9.15206 7.77818 9.41346 7.81789C9.49878 7.83085 9.54775 7.95757 9.54203 8.06172C9.53691 8.15508 9.49159 8.24114 9.41187 8.28865C9.30867 8.35016 9.27497 8.23345 9.21482 8.18905C9.16827 8.15469 9.12791 8.11181 9.08387 8.07188C8.96199 8.25335 9.24519 8.27067 9.18743 8.42457Z" fill="white"/>
<path d="M12.3301 19.1187C12.6753 18.9583 12.8216 19.0013 12.9945 19.2985C13.0391 19.272 13.0848 19.2472 13.128 19.2185C13.1824 19.1822 13.2363 19.1157 13.2965 19.2025C13.3466 19.2749 13.2935 19.3265 13.2482 19.3795C13.1865 19.4516 13.0942 19.4991 13.0656 19.6002C13.1269 19.6868 13.188 19.6008 13.247 19.6057C13.3231 19.6119 13.3855 19.6559 13.3869 19.7265C13.3884 19.7992 13.3083 19.7862 13.2626 19.7791C13.0396 19.7446 13.0437 19.8856 13.0482 20.041C13.0499 20.0995 13.0895 20.1998 12.9935 20.2078C12.9199 20.2139 12.9004 20.1189 12.8802 20.0567C12.8494 19.9613 12.9293 19.7519 12.6879 19.8964C12.649 19.9197 12.5405 19.8479 12.6139 19.7477C12.6713 19.6694 12.7377 19.5978 12.7932 19.5182C12.8266 19.4702 12.9442 19.4277 12.8656 19.365C12.7851 19.3009 12.7144 19.16 12.5893 19.2096C12.4576 19.262 12.419 19.3746 12.5253 19.4995C12.5696 19.5514 12.6313 19.6042 12.5463 19.666C12.4754 19.7175 12.422 19.6655 12.3714 19.6173C12.2157 19.4693 12.2044 19.3088 12.3301 19.1187Z" fill="white"/>
<path d="M10.3704 17.2025C10.1549 17.1882 9.93759 17.2574 9.79303 17.0264C9.73518 16.934 9.73847 16.8886 9.80875 16.8193C9.96291 16.6674 10.121 16.5191 10.246 16.3392C10.2881 16.2785 10.3462 16.22 10.4293 16.3006C10.493 16.3624 10.4868 16.4157 10.4255 16.4713C10.3683 16.5232 10.3497 16.5734 10.4068 16.6443C10.5328 16.8009 10.5093 16.9621 10.4019 17.1373C10.4077 17.1752 10.4034 17.1925 10.3704 17.2025Z" fill="white"/>
<path d="M9.69238 15.5654C9.75302 15.6651 9.69151 15.7162 9.63927 15.7694C9.52946 15.8812 9.4191 15.9924 9.3084 16.1033C9.11669 16.2954 9.04306 16.294 8.88016 16.0962C8.73998 15.9261 8.75802 15.7349 8.92566 15.6097C8.99818 15.5556 9.07825 15.4886 9.16785 15.5305C9.33958 15.6108 9.50559 15.6487 9.69238 15.5654Z" fill="white"/>
<path d="M3.18134 17.602C2.99577 17.6361 2.82746 17.7025 2.68441 17.5135C2.59154 17.3907 2.54857 17.2977 2.64061 17.1556C2.74341 16.9969 2.8608 16.8835 3.0591 16.9463C3.21592 16.996 3.30286 17.1149 3.29921 17.2854C3.29812 17.336 3.2744 17.3861 3.25884 17.4539C3.26025 17.5254 3.2363 17.5656 3.18134 17.602Z" fill="white"/>
<path d="M8.64184 15.8227C8.55311 15.7813 8.55696 15.7166 8.56744 15.6456C8.59666 15.4475 8.50955 15.3461 8.32378 15.3716C8.2459 15.3823 8.15927 15.4064 8.13201 15.3175C8.10148 15.218 8.20895 15.2025 8.26992 15.1722C8.44936 15.083 8.63329 15.0029 8.81429 14.9168C8.88415 14.8836 8.94137 14.8911 8.99647 14.9471C9.05185 15.0034 9.05875 15.061 9.02231 15.1304C8.90104 15.3614 8.81788 15.6127 8.64184 15.8227Z" fill="white"/>
<path d="M7.32965 6.31642C7.28881 6.40965 7.28406 6.53821 7.15811 6.49475C7.03287 6.45154 7.09523 6.3656 7.13456 6.27685C7.18278 6.16806 7.03138 6.0454 6.87663 6.05937C6.80873 6.0655 6.72196 6.13399 6.68697 6.02527C6.64904 5.90738 6.76503 5.89329 6.83184 5.86635C7.01171 5.79382 7.19015 5.71812 7.35212 5.61181C7.42331 5.56508 7.46867 5.56615 7.52495 5.62481C7.57886 5.681 7.62568 5.72834 7.57698 5.81807C7.49132 5.97591 7.41661 6.13979 7.32965 6.31642Z" fill="white"/>
<path d="M12.3318 19.1019C12.2975 19.1145 12.2616 19.1235 12.2293 19.14C12.0465 19.2334 11.8621 19.1876 11.7666 19.0234C11.6915 18.8942 11.7691 18.633 11.908 18.5477C12.0864 18.4382 12.2964 18.4777 12.3889 18.6484C12.4689 18.7961 12.4179 18.9359 12.334 19.0847C12.3319 19.1018 12.3318 19.1019 12.3318 19.1019Z" fill="white"/>
<path d="M9.30453 16.2857C9.40901 16.1026 9.53805 15.9776 9.7449 16.0383C9.92135 16.0902 10.0162 16.2252 9.98942 16.4162C9.96174 16.6137 9.77303 16.7311 9.55539 16.7005C9.38154 16.6759 9.28186 16.5219 9.30453 16.2857Z" fill="white"/>
<path d="M4.03433 18.06C4.16514 18.0783 4.16514 18.0783 4.29297 18.1933C3.93399 18.1731 3.88426 18.4021 3.8833 18.6708C3.6601 18.5717 3.69173 18.4126 3.7522 18.2527C3.72964 18.2425 3.7145 18.2297 3.70701 18.2333C3.63387 18.2679 3.57019 18.3953 3.48089 18.293C3.38821 18.1867 3.52472 18.1398 3.57562 18.0827C3.69523 17.9485 3.82615 17.8245 3.95384 17.6977C4.01184 17.6401 4.07646 17.559 4.15923 17.6462C4.24079 17.732 4.13513 17.7753 4.09291 17.8268C4.0455 17.8846 3.97599 17.9274 3.94026 17.9907C3.88416 18.09 3.98172 18.047 4.03433 18.06Z" fill="white"/>
<path d="M9.89548 9.09016C9.68714 9.12695 9.59532 8.98545 9.49124 8.87013C9.44347 8.81719 9.44867 8.75503 9.50627 8.71262C9.56936 8.66618 9.61219 8.68829 9.64074 8.76362C9.67054 8.84227 9.72386 8.93592 9.81654 8.88844C9.9052 8.84301 9.86085 8.74141 9.82948 8.66641C9.76217 8.5055 9.7723 8.35517 9.94563 8.29139C10.1063 8.23224 10.2554 8.29495 10.3496 8.44966C10.3801 8.49968 10.4194 8.55888 10.3512 8.60905C10.2934 8.65156 10.2569 8.60083 10.2172 8.56757C10.1627 8.52195 10.1154 8.42428 10.0343 8.4772C9.94909 8.5328 10.0302 8.61614 10.0491 8.68047C10.0997 8.85325 10.1189 9.00655 9.89548 9.09016Z" fill="white"/>
<path d="M10.9281 18.1574C10.872 18.0594 10.9207 18.0191 10.991 17.9919C11.0653 17.9632 11.0793 18.0297 11.1011 18.0721C11.142 18.1516 11.1981 18.2319 11.288 18.1815C11.3885 18.1252 11.276 18.0552 11.2667 17.9901C11.2442 17.8318 11.2135 17.6717 11.3988 17.5845C11.5873 17.4957 11.6816 17.6628 11.8036 17.7457C11.8485 17.7763 11.8518 17.8434 11.8174 17.889C11.7743 17.9461 11.7245 17.9138 11.6828 17.8786C11.6487 17.8496 11.6182 17.8163 11.585 17.7862C11.5555 17.7595 11.5218 17.7443 11.4849 17.7706C11.4513 17.7945 11.4393 17.8279 11.4523 17.8687C11.4659 17.9115 11.4789 17.9546 11.493 17.9973C11.5349 18.1236 11.5675 18.263 11.4325 18.3404C11.2934 18.4202 11.1457 18.4038 11.0316 18.2674C11.0028 18.233 10.9694 18.2026 10.9281 18.1574Z" fill="white"/>
<path d="M8.42388 22.9712C8.4499 22.8792 8.52009 22.8626 8.58925 22.8224C8.68472 22.8175 8.76859 22.8084 8.84902 22.8213C9.05746 22.8545 9.15067 23.0475 9.05158 23.2256C8.98222 23.3503 8.90785 23.39 8.7952 23.2643C8.75307 23.2172 8.70687 23.102 8.62657 23.1727C8.56231 23.2292 8.65506 23.2877 8.69326 23.3386C8.72627 23.3826 8.76119 23.4327 8.70481 23.4756C8.65275 23.5152 8.61155 23.4665 8.56731 23.4378C8.39717 23.3272 8.41999 23.1566 8.42388 22.9712Z" fill="white"/>
<path d="M10.3533 17.2169C10.37 17.1946 10.3816 17.1863 10.3952 17.1642C10.5094 17.1406 10.5882 17.0459 10.7147 17.0579C10.8499 17.0708 10.9166 17.1402 10.9628 17.2504C11.0149 17.3747 10.9588 17.4761 10.874 17.5542C10.7537 17.6649 10.7149 17.511 10.6432 17.4666C10.6023 17.4414 10.5691 17.3627 10.5171 17.4108C10.4566 17.4667 10.5186 17.5197 10.5602 17.5609C10.6144 17.6146 10.7289 17.6554 10.6269 17.7495C10.5425 17.8273 10.5011 17.7163 10.4471 17.6764C10.2869 17.5583 10.2799 17.4047 10.3533 17.2169Z" fill="white"/>
<path d="M11.8926 18.069C11.9802 18.0017 12.063 18.0351 12.0465 18.1087C12.0242 18.2087 12.1161 18.3724 11.9799 18.4027C11.7887 18.4453 11.666 18.5063 11.6468 18.7223C11.6391 18.8095 11.5606 18.7843 11.5092 18.7432C11.3929 18.6501 11.4277 18.5431 11.4942 18.4426C11.5588 18.3451 11.6561 18.2757 11.6741 18.1406C11.691 18.0138 11.816 18.1208 11.8926 18.069Z" fill="white"/>
<path d="M2.4757 17.2245C2.22761 17.0934 2.21811 17.0546 2.38929 16.8754C2.45803 16.8034 2.50982 16.7259 2.54079 16.6301C2.593 16.4688 2.7466 16.5183 2.85991 16.4875C2.87554 16.4833 2.91482 16.5187 2.92251 16.5425C2.94837 16.6226 2.84652 16.6699 2.87531 16.7709C2.90697 16.8818 2.80426 16.8444 2.73105 16.856C2.53727 16.8865 2.5162 17.0595 2.4757 17.2245Z" fill="white"/>
<path d="M3.16028 17.623C3.18956 17.5666 3.21173 17.5266 3.24519 17.479C3.40359 17.4795 3.55921 17.4363 3.69166 17.5355C3.75778 17.5851 3.8362 17.6439 3.76576 17.7381C3.7016 17.8238 3.64945 17.7476 3.60088 17.7055C3.51949 17.6349 3.43856 17.6327 3.362 17.709C3.2762 17.7946 3.28627 17.8815 3.36673 17.9664C3.40845 18.0105 3.46063 18.0595 3.3913 18.1169C3.32342 18.1731 3.28602 18.1028 3.24178 18.0673C3.09448 17.9493 3.09572 17.8003 3.16028 17.623Z" fill="white"/>
<path d="M5.59289 12.5348C5.59943 12.5287 5.60611 12.5227 5.61279 12.5167C5.6106 12.5211 5.6084 12.5255 5.59979 12.5326C5.59337 12.5353 5.59303 12.535 5.59289 12.5348Z" fill="white"/>
<path d="M1.63892 15.7808C1.58632 15.7928 1.53753 15.7793 1.52439 15.7192C1.52196 15.7081 1.54604 15.6787 1.55739 15.679C1.60962 15.6802 1.62704 15.7212 1.63892 15.7808Z" fill="white"/>
<path d="M1.63981 15.7948C1.64167 15.8004 1.64318 15.8063 1.64179 15.804C1.63889 15.7959 1.63945 15.7951 1.63981 15.7948Z" fill="white"/>
<path d="M8.983 7.79804C8.97908 7.80038 8.98692 7.7957 8.983 7.79804Z" fill="white"/>
</g>
<defs>
<clipPath id="clip0_157_439">
<rect width="18" height="26" fill="white"/>
</clipPath>
</defs>
</svg>
