<svg width="18" height="25" viewBox="0 0 18 25" fill="none" xmlns="http://www.w3.org/2000/svg">
<path d="M8.9872 0.981379C9.02222 0.963501 9.04445 0.963501 9.08333 0.963501C9.26742 1.47441 9.33771 2.01336 9.4377 2.56848C9.45139 2.62237 9.45693 2.6538 9.46365 2.70935C9.52907 3.21774 9.61841 3.69699 9.68558 4.20447C9.69867 4.25741 9.7038 4.28828 9.70972 4.34281C9.721 4.47345 9.70515 4.5835 9.7431 4.71123C9.755 4.76566 9.75967 4.79748 9.76455 4.85429C9.80517 5.41164 9.89601 5.93909 9.88978 6.5009C9.91288 6.6069 9.9136 6.68987 9.90336 6.79733C9.83137 7.22823 9.88207 7.63925 9.86978 8.04808C9.8657 8.18379 9.95293 8.18463 10.0252 8.16805C10.4441 8.07201 10.6066 8.34344 10.7371 8.76244C11.0542 9.78015 11.4031 10.7842 11.7396 11.8177C11.8346 12.1927 11.9788 12.5225 12.0725 12.8738C12.1287 13.0844 12.2345 13.2289 12.4369 13.2931C12.5381 13.3591 12.6297 13.3948 12.741 13.4307C13.8339 14.015 14.9333 14.5266 16.0345 15.0878C16.0625 15.1017 16.0736 15.1077 16.1009 15.1229C16.128 15.1384 16.1389 15.1446 16.166 15.1598C16.1935 15.1744 16.2045 15.1802 16.2322 15.1944C16.6763 15.4207 17.1122 15.6135 17.5672 15.8106C17.9921 16.0126 17.96 16.4395 17.9885 16.8595C18 17.1148 18 17.3512 18 17.6147C17.7164 17.8254 17.4322 17.6588 17.1514 17.6329C16.443 17.5677 15.7404 17.4292 15.0089 17.3885C14.96 17.3982 14.932 17.399 14.8841 17.3909C14.7621 17.3057 14.6466 17.3016 14.5099 17.3041C14.4632 17.3007 14.4365 17.2965 14.3898 17.2856C13.9642 17.2442 13.5639 17.1499 13.1353 17.1329C13.0852 17.1309 13.0568 17.1272 13.0075 17.1163C12.5938 17.0578 12.202 16.9943 11.8076 16.9603C11.692 16.9503 11.5764 16.952 11.4504 16.8844C11.3571 16.8293 11.322 16.7331 11.2541 16.6773C11.1216 17.217 11.2082 17.8068 11.4864 18.2401C11.5759 18.3794 11.6585 18.5241 11.756 18.6815C11.8371 18.7896 11.8935 18.8943 11.9709 19.0058C12.0966 19.2225 12.2166 19.419 12.3526 19.6262C12.3774 19.6613 12.3909 19.6817 12.4137 19.7178C12.4466 19.7743 12.4664 19.8183 12.5013 19.8726C12.5169 19.8971 12.523 19.9071 12.5377 19.9324C12.573 20.0006 12.6033 20.0503 12.6503 20.109C12.668 20.1333 12.6748 20.1434 12.6911 20.1693C12.7626 20.2949 12.8317 20.3985 12.9094 20.5189C12.9346 20.5537 12.9483 20.5741 12.9711 20.6106C13.0147 20.6906 13.0501 20.7538 13.1089 20.82C13.1355 20.8527 13.1499 20.8725 13.1738 20.9087C13.2099 20.9691 13.2337 21.0152 13.2739 21.0737C13.2922 21.1021 13.2994 21.1138 13.3159 21.1444C13.432 21.3376 13.5328 21.5167 13.6045 21.715C13.7883 22.2235 13.5755 22.6089 13.1079 22.6536C12.6064 22.7015 12.1418 22.5012 11.6634 22.3921C11.5821 22.3735 11.5007 22.3547 11.4192 22.3379C11.2119 22.2952 11.0453 22.1925 10.9507 21.9552C10.9245 21.8894 10.8995 21.8093 10.8163 21.768C10.7221 21.9252 10.6353 22.0813 10.4637 22.1731C10.3583 22.2294 10.4148 22.4558 10.4459 22.6309C10.4684 22.7507 10.466 22.849 10.4688 22.9721C10.4317 23.35 10.4535 23.7119 10.3366 24.0744C10.3019 24.1174 10.2766 24.1289 10.2274 24.1254C10.0424 24.0473 10.0357 23.8776 10.0334 23.71C10.0276 23.2821 10.0175 22.853 10.0387 22.4267C10.0529 22.1416 9.85903 22.0425 9.74969 21.8668C9.74283 21.8558 9.70879 21.8891 9.67897 21.9261C9.61309 21.9896 9.55005 21.9948 9.46942 22.0035C9.30761 22.0559 9.36534 22.1995 9.36885 22.2973C9.37835 22.5621 9.30468 22.728 9.04336 22.746C9.01238 22.7468 8.99992 22.746 8.96894 22.7419C8.92575 22.7325 8.90105 22.7266 8.85726 22.718C8.73199 22.6976 8.62468 22.6821 8.59287 22.5039C8.58661 22.4509 8.58516 22.4205 8.58443 22.3679C8.58289 22.3022 8.58466 22.2588 8.58406 22.1946C8.61026 21.909 8.39083 21.9742 8.28455 21.8636C8.26687 21.832 8.2535 21.8252 8.22783 21.8441C8.21525 21.8676 8.21029 21.8781 8.19621 21.905C7.92425 22.0675 7.90699 22.3304 7.91359 22.6312C7.92191 23.0103 7.95094 23.3941 7.86723 23.7694C7.8383 23.8991 7.83076 24.0787 7.67633 24.0558C7.53154 24.0342 7.53561 23.8597 7.53357 23.7232C7.52641 23.2442 7.53635 22.7651 7.53201 22.286C7.53097 22.172 7.30355 21.8145 7.21504 21.7865C7.12647 21.7584 7.09399 21.844 7.06787 21.9088C6.96745 22.158 6.78616 22.2482 6.57097 22.2956C6.11335 22.3965 5.65688 22.5048 5.20244 22.6243C5.09575 22.6524 4.98799 22.661 4.87983 22.6467C4.47854 22.5939 4.25774 22.1786 4.39375 21.7348C4.47989 21.4537 4.63379 21.2217 4.78963 20.9925C4.91954 20.8014 5.04613 20.6076 5.1771 20.3896C5.37918 20.0667 5.56787 19.76 5.75024 19.4231C5.79247 19.3507 5.82874 19.2985 5.86776 19.2242C6.02451 18.9934 6.14571 18.7579 6.28412 18.513C6.29809 18.4855 6.30391 18.4748 6.31895 18.4485C6.34695 18.4029 6.36678 18.3737 6.39245 18.3268C6.40642 18.3006 6.41214 18.2902 6.42695 18.2646C6.46857 18.1999 6.49829 18.1482 6.53079 18.0752C6.58727 17.9641 6.62155 17.8604 6.69401 17.7583C6.82235 17.5122 6.78046 17.27 6.74685 17.0291C6.73237 16.9254 6.68627 16.8694 6.59014 16.9107C6.03003 17.1517 5.43585 17.0293 4.86253 17.1331C4.60869 17.179 4.35092 17.1926 4.0749 17.2215C4.02839 17.2363 4.00112 17.2421 3.95239 17.2478C3.60252 17.253 3.27816 17.3287 2.92855 17.3393C2.87901 17.3557 2.84993 17.3615 2.7981 17.3666C2.0676 17.4303 1.36028 17.5022 0.654219 17.5914C0.449559 17.6173 0.243758 17.6265 0.0188728 17.598C0 17.5571 0 17.531 0 17.4853C0.0745108 17.0495 0.175679 16.6424 0.286541 16.2373C0.351946 15.9984 0.465579 15.8364 0.658831 15.728C0.867692 15.6108 1.08914 15.5288 1.30999 15.3891C1.33847 15.372 1.35019 15.3659 1.38004 15.3526C1.99411 15.1268 2.54989 14.7925 3.12545 14.5152C3.50163 14.334 3.87267 14.1379 4.26533 13.9453C4.74977 13.7294 5.20117 13.4782 5.6629 13.2559C5.75837 13.2099 5.8414 13.146 5.8783 13.0269C6.06027 12.4397 6.28315 11.8705 6.44297 11.2495C6.46464 11.1521 6.48649 11.0786 6.51939 10.9843C6.77144 10.4269 6.90164 9.83639 7.1173 9.28704C7.23519 8.98675 7.37012 8.69268 7.42163 8.36189C7.45114 8.17239 7.55937 8.11002 7.70875 8.10707C7.85005 8.10428 7.99158 8.0975 8.13228 8.11459C8.24132 8.12783 8.28843 8.07873 8.27553 7.94963C8.16334 6.82691 8.27301 5.71461 8.38794 4.60221C8.49604 3.55576 8.64472 2.51841 8.87717 1.4748C8.87981 1.37105 8.88362 1.29154 8.89883 1.18949C8.91622 1.1044 8.93974 1.04853 8.9872 0.981379Z" fill="white"/>
</svg>
