<svg width="18" height="26" viewBox="0 0 18 26" fill="none" xmlns="http://www.w3.org/2000/svg">
<g clip-path="url(#clip0_157_439)">
<path d="M9.0714 2.13619e-10C9.22566 0.485375 9.4091 0.96353 9.47217 1.45756C9.62604 2.66264 9.62091 3.8808 9.67945 5.09373C9.68407 5.18953 9.6656 5.30958 9.71394 5.37656C10.2466 6.11467 10.1436 7.00881 10.311 7.83545C10.403 8.28959 10.4605 8.75202 10.5723 9.20077C10.896 10.5008 10.9579 11.8278 10.9921 13.1576C10.9974 13.3598 11.0476 13.4568 11.2383 13.5364C12.0638 13.881 12.8798 14.2491 13.7016 14.6031C13.8089 14.6493 13.9615 14.8095 13.9861 14.4947C14.8388 14.9757 15.6559 15.4369 16.4732 15.8976C16.8658 16.1188 16.9596 16.06 16.9725 15.6101C16.9813 15.3026 16.9544 14.9855 17.227 14.7437C17.2909 14.687 17.254 14.5212 17.2807 14.4099C17.2981 14.3373 17.3467 14.2723 17.3814 14.204C17.4323 14.2738 17.5026 14.3366 17.5302 14.4149C17.5929 14.5932 17.6534 14.7765 17.678 14.9629C17.6942 15.0851 17.6292 15.2161 17.6295 15.343C17.631 16.0681 17.6401 16.7931 17.6499 17.5181C17.6511 17.6026 17.6458 17.7409 17.6887 17.7628C18.132 17.9889 17.8531 18.42 18 18.7277C17.7543 18.7845 17.5388 18.8343 17.2595 18.8988C17.1748 18.8868 17.006 18.8256 16.8474 18.8461C15.644 19.0018 14.4426 19.1737 13.2405 19.3401C12.5248 19.4392 11.809 19.5377 11.0706 19.6396C11.1497 19.8511 11.2099 20.0461 11.2938 20.2298C11.5517 20.7948 11.721 21.3734 11.694 22.0091C11.6873 22.166 11.7868 22.361 11.8968 22.4837C12.3837 23.0273 12.8903 23.5528 13.3934 24.0812C13.8783 24.5903 13.9096 25.5189 13.4492 25.9773C13.3159 26 13.1853 26 13.0139 25.981C12.063 25.5661 11.1531 25.1702 10.2395 24.7728C10.1793 24.9593 10.1342 25.099 10.0917 25.2306C9.79031 25.2306 9.51543 25.2306 9.20745 25.2306C9.14708 24.8377 9.08767 24.4511 9.02124 24.0189C8.93441 24.4535 8.85826 24.8347 8.78114 25.2207C8.43868 25.2207 8.14344 25.2207 7.83965 25.2207C7.80029 25.0716 7.76258 24.9287 7.72248 24.7768C6.76704 25.1873 5.8212 25.5937 4.87537 26C4.78653 26 4.69769 26 4.5822 26C4.0885 25.5763 4.04883 24.6924 4.48185 24.215C5.01604 23.626 5.55832 23.0445 6.09027 22.4534C6.17062 22.3642 6.27473 22.2344 6.26485 22.1337C6.18272 21.297 6.52985 20.5729 6.81594 19.8314C6.83491 19.7822 6.85231 19.7324 6.88431 19.645C6.25818 19.5555 5.65345 19.4696 5.04889 19.3825C3.87878 19.2138 2.71003 19.0344 1.53787 18.8821C1.23804 18.8431 0.910756 18.7122 0.713752 18.9001C0.429305 18.8396 0.216305 18.7943 0.000600955 18.7484C0.000600955 18.5241 -0.00180029 18.2946 0.00299706 18.0652C0.00378401 18.0276 0.0271631 17.9689 0.0554401 17.9567C0.397126 17.8096 0.319478 17.5018 0.322909 17.2324C0.331051 16.5934 0.331641 15.9542 0.325741 15.3152C0.325046 15.2401 0.264666 15.1655 0.230789 15.0879C0.335776 14.7953 0.451287 14.4733 0.566797 14.1513C0.592679 14.1601 0.61856 14.169 0.644442 14.1779C0.662459 14.7473 1.14631 15.2105 0.994977 15.8252C0.982209 15.877 1.11571 15.9661 1.18171 16.0384C2.11237 15.5322 3.02183 15.0375 3.93129 14.5429C3.93357 14.5652 3.93584 14.5875 3.93811 14.6099C4.04477 14.6099 4.16504 14.6431 4.25598 14.6047C5.0998 14.2481 5.94114 13.8851 6.77522 13.5058C6.86877 13.4633 6.96363 13.3125 6.97201 13.205C7.05274 12.17 7.08159 11.1297 7.1953 10.0989C7.26231 9.49142 7.47347 8.90182 7.58662 8.29777C7.68608 7.76681 7.71241 7.22117 7.82164 6.69281C7.90762 6.27688 8.07109 5.87755 8.19911 5.47051C8.22426 5.39051 8.26135 5.3097 8.26475 5.22805C8.30983 4.14655 8.30258 3.06001 8.40877 1.98497C8.47326 1.33205 8.47644 0.639668 8.84434 0.023952C8.90936 -6.3926e-08 8.97758 -6.47864e-08 9.0714 2.13619e-10Z" fill="white"/>
</g>
<defs>
<clipPath id="clip0_157_439">
<rect width="18" height="26" fill="white"/>
</clipPath>
</defs>
</svg>
