<svg width="19" height="27" viewBox="0 0 19 27" fill="none" xmlns="http://www.w3.org/2000/svg">
<path d="M9.93419 0.612305C10.0885 1.09768 10.2719 1.57583 10.335 2.06986C10.4888 3.27494 10.4837 4.49311 10.5422 5.70603C10.5469 5.80183 10.5284 5.92188 10.5767 5.98886C11.1094 6.72697 11.0064 7.62112 11.1738 8.44775C11.2658 8.9019 11.3233 9.36433 11.4351 9.81307C11.7588 11.1131 11.8207 12.4401 11.8549 13.7699C11.8601 13.9721 11.9104 14.0691 12.1011 14.1487C12.9266 14.4933 13.7426 14.8614 14.5644 15.2154C14.6717 15.2616 14.8243 15.4218 14.8489 15.107C15.7016 15.588 16.5187 16.0492 17.336 16.5099C17.7286 16.7311 17.8224 16.6723 17.8353 16.2224C17.8441 15.9149 17.8172 15.5978 18.0898 15.356C18.1537 15.2993 18.1168 15.1335 18.1435 15.0222C18.1609 14.9496 18.2095 14.8846 18.2442 14.8163C18.2951 14.8861 18.3654 14.9489 18.393 15.0272C18.4556 15.2055 18.5162 15.3889 18.5408 15.5752C18.557 15.6974 18.492 15.8284 18.4923 15.9553C18.4938 16.6804 18.5029 17.4054 18.5127 18.1304C18.5139 18.2149 18.5086 18.3532 18.5514 18.3751C18.9948 18.6012 18.7159 19.0323 18.8628 19.34C18.6171 19.3968 18.4016 19.4466 18.1223 19.5111C18.0376 19.4991 17.8688 19.4379 17.7102 19.4584C16.5068 19.6141 15.3054 19.786 14.1033 19.9524C13.3876 20.0515 12.6718 20.15 11.9334 20.2519C12.0125 20.4634 12.0727 20.6584 12.1566 20.8421C12.4145 21.4071 12.5838 21.9857 12.5568 22.6215C12.5501 22.7783 12.6496 22.9733 12.7595 23.096C13.2465 23.6396 13.753 24.1651 14.2562 24.6935C14.7411 25.2026 14.7724 26.1312 14.312 26.5896C14.1787 26.6123 14.0481 26.6123 13.8767 26.5933C12.9258 26.1784 12.0159 25.7826 11.1023 25.3851C11.0421 25.5716 10.997 25.7113 10.9545 25.8429C10.6531 25.8429 10.3782 25.8429 10.0702 25.8429C10.0099 25.45 9.95046 25.0634 9.88403 24.6312C9.7972 25.0658 9.72106 25.447 9.64394 25.833C9.30148 25.833 9.00623 25.833 8.70245 25.833C8.66308 25.6839 8.62537 25.5411 8.58527 25.3891C7.62983 25.7996 6.684 26.206 5.73816 26.6123C5.64932 26.6123 5.56048 26.6123 5.44499 26.6123C4.95129 26.1886 4.91163 25.3048 5.34464 24.8273C5.87883 24.2383 6.42111 23.6568 6.95307 23.0657C7.03341 22.9765 7.13752 22.8467 7.12764 22.746C7.04551 21.9093 7.39264 21.1852 7.67873 20.4437C7.6977 20.3945 7.7151 20.3447 7.7471 20.2573C7.12098 20.1678 6.51624 20.0819 5.91169 19.9948C4.74158 19.8261 3.57282 19.6467 2.40066 19.4944C2.10084 19.4554 1.77355 19.3245 1.57654 19.5124C1.2921 19.4519 1.0791 19.4066 0.863394 19.3607C0.863394 19.1364 0.860993 18.9069 0.86579 18.6775C0.866577 18.6399 0.889956 18.5812 0.918233 18.569C1.25992 18.4219 1.18227 18.1141 1.1857 17.8447C1.19384 17.2057 1.19443 16.5665 1.18853 15.9275C1.18784 15.8524 1.12746 15.7778 1.09358 15.7002C1.19857 15.4076 1.31408 15.0856 1.42959 14.7636C1.45547 14.7725 1.48135 14.7813 1.50723 14.7902C1.52525 15.3596 2.00911 15.8228 1.85777 16.4375C1.845 16.4894 1.9785 16.5784 2.0445 16.6507C2.97517 16.1445 3.88463 15.6498 4.79409 15.1552C4.79636 15.1775 4.79863 15.1998 4.80091 15.2222C4.90757 15.2222 5.02783 15.2554 5.11877 15.217C5.96259 14.8604 6.80394 14.4974 7.63802 14.1181C7.73157 14.0756 7.82642 13.9248 7.83481 13.8173C7.91553 12.7823 7.94438 11.742 8.0581 10.7112C8.12511 10.1037 8.33627 9.51412 8.44941 8.91008C8.54887 8.37912 8.57521 7.83347 8.68443 7.30512C8.77041 6.88919 8.93388 6.48985 9.0619 6.08281C9.08706 6.00282 9.12414 5.922 9.12755 5.84035C9.17262 4.75886 9.16537 3.67232 9.27156 2.59728C9.33605 1.94436 9.33923 1.25197 9.70713 0.636257C9.77215 0.612305 9.84038 0.612305 9.93419 0.612305Z" fill="white"/>
</svg>
