<svg width="18" height="26" viewBox="0 0 18 26" fill="none" xmlns="http://www.w3.org/2000/svg">
<g clip-path="url(#clip0_157_439)">
<path d="M5.26232 24.3578C3.61068 24.1827 1.99586 24.0017 0.378804 23.8424C0.0595989 23.811 -0.030672 23.6791 0.00861618 23.3945C0.0459072 23.1245 0.0938863 22.8624 0.217579 22.6117C0.70041 21.6331 1.16965 20.648 1.65072 19.6685C1.77432 19.4168 1.82735 19.1586 1.82679 18.8812C1.82647 18.7215 1.77526 18.5388 1.96026 18.4064C2.18365 18.512 2.09099 18.779 2.27116 18.9682C3.56631 16.9316 4.83004 14.8838 6.8286 13.318C6.27121 13.0795 5.81159 13.1315 5.37961 13.0395C5.16092 12.993 4.93426 12.954 4.71205 12.9579C4.34789 12.9642 4.23995 12.8064 4.22987 12.464C4.21526 11.9675 4.32265 11.54 4.61283 11.1173C5.34274 10.0541 6.02746 8.96121 6.73455 7.88291C6.85176 7.70416 6.94767 7.52509 6.92316 7.3055C6.89223 7.02844 7.00224 6.91064 7.3027 6.90996C7.76553 6.90891 7.85696 6.80752 7.86285 6.35851C7.88408 4.7414 7.95674 3.12885 8.34791 1.5485C8.47963 1.01632 8.60186 0.474385 8.96378 0C9.21009 0.152297 9.27119 0.369411 9.34443 0.569438C9.76168 1.70909 9.95556 2.89494 10.0502 4.09466C10.1101 4.85469 10.1161 5.61921 10.1319 6.382C10.1394 6.74438 10.2719 6.95572 10.6752 6.91464C10.9426 6.8874 11.0792 6.99543 11.0618 7.26343C11.0458 7.51044 11.1533 7.70967 11.2854 7.91062C12.0224 9.03176 12.7331 10.17 13.4935 11.2755C13.8065 11.7305 13.7744 12.2009 13.7507 12.6895C13.7411 12.8883 13.5934 12.9269 13.419 12.947C12.8152 13.0164 12.2128 13.0969 11.6098 13.1726C11.506 13.1856 11.3952 13.1769 11.2876 13.3089C12.0272 14.2493 13.0643 14.9447 13.7377 15.9521C14.403 16.9473 15.0616 17.9467 15.7389 18.9681C15.8965 18.7878 15.8228 18.5312 16.0186 18.4111C16.1677 18.4644 16.1831 18.5912 16.1694 18.6993C16.1018 19.234 16.347 19.6808 16.5689 20.1359C16.9675 20.9533 17.3586 21.7742 17.7674 22.5868C17.9118 22.874 17.9519 23.1769 17.9939 23.484C18.0241 23.7044 17.9447 23.8096 17.6998 23.8337C16.5296 23.9485 15.3609 24.0782 14.1918 24.2044C13.0754 24.325 11.9593 24.449 10.8427 24.5682C10.675 24.5861 10.534 24.6267 10.4675 24.7995C10.4132 24.9406 10.2942 24.992 10.1496 24.979C9.69107 24.9381 9.5222 25.2368 9.40532 25.5877C9.3366 25.794 9.32757 26.0068 8.99559 25.9998C8.69371 25.9935 8.66496 25.8124 8.6042 25.6124C8.48677 25.226 8.30198 24.9151 7.80599 24.9756C7.70851 24.9875 7.60119 24.9492 7.57087 24.8615C7.4661 24.5584 7.19267 24.5661 6.95337 24.5357C6.40316 24.4659 5.85019 24.417 5.26232 24.3578Z" fill="white"/>
</g>
<defs>
<clipPath id="clip0_157_439">
<rect width="18" height="26" fill="white"/>
</clipPath>
</defs>
</svg>
