<svg width="19" height="27" viewBox="0 0 19 27" fill="none" xmlns="http://www.w3.org/2000/svg">
<g clip-path="url(#clip0_157_439)">
<path d="M5.35851 24.3924C3.70687 24.2173 2.09205 24.0364 0.474995 23.8771C0.15579 23.8457 0.0655194 23.7137 0.104808 23.4292C0.142099 23.1592 0.190078 22.8971 0.313771 22.6464C0.796601 21.6677 1.26584 20.6826 1.74691 19.7031C1.87052 19.4515 1.92354 19.1933 1.92298 18.9159C1.92266 18.7561 1.87145 18.5735 2.05645 18.4411C2.27984 18.5467 2.18718 18.8137 2.36735 19.0028C3.6625 16.9663 4.92623 14.9185 6.92479 13.3526C6.3674 13.1142 5.90778 13.1662 5.4758 13.0742C5.25711 13.0277 5.03045 12.9887 4.80824 12.9925C4.44408 12.9988 4.33614 12.8411 4.32606 12.4987C4.31145 12.0022 4.41884 11.5747 4.70902 11.152C5.43893 10.0887 6.12365 8.99588 6.83074 7.91758C6.94795 7.73882 7.04386 7.55976 7.01935 7.34017C6.98842 7.06311 7.09843 6.94531 7.39889 6.94463C7.86172 6.94358 7.95315 6.84219 7.95904 6.39318C7.98027 4.77607 8.05293 3.16352 8.4441 1.58317C8.57582 1.05099 8.69805 0.509053 9.05997 0.034668C9.30628 0.186964 9.36738 0.404079 9.44062 0.604106C9.85787 1.74376 10.0518 2.92961 10.1464 4.12933C10.2063 4.88936 10.2123 5.65388 10.2281 6.41666C10.2356 6.77905 10.3681 6.99039 10.7714 6.94931C11.0388 6.92207 11.1754 7.0301 11.158 7.2981C11.142 7.5451 11.2495 7.74434 11.3816 7.94529C12.1185 9.06643 12.8293 10.2046 13.5897 11.3102C13.9027 11.7652 13.8706 12.2356 13.8469 12.7242C13.8373 12.923 13.6896 12.9616 13.5152 12.9817C12.9114 13.0511 12.309 13.1316 11.706 13.2073C11.6022 13.2203 11.4914 13.2115 11.3838 13.3435C12.1234 14.2839 13.1605 14.9793 13.8339 15.9868C14.4992 16.9819 15.1578 17.9814 15.8351 19.0027C15.9926 18.8225 15.919 18.5658 16.1148 18.4457C16.2639 18.4991 16.2793 18.6259 16.2656 18.734C16.198 19.2686 16.4432 19.7155 16.6651 20.1705C17.0637 20.9879 17.4548 21.8089 17.8635 22.6214C18.008 22.9087 18.0481 23.2116 18.0901 23.5187C18.1203 23.739 18.0409 23.8443 17.796 23.8683C16.6258 23.9832 15.457 24.1129 14.288 24.2391C13.1716 24.3596 12.0555 24.4837 10.9389 24.6029C10.7712 24.6208 10.6302 24.6614 10.5637 24.8342C10.5094 24.9752 10.3904 25.0266 10.2458 25.0137C9.78726 24.9727 9.61839 25.2714 9.50151 25.6223C9.43279 25.8286 9.42376 26.0415 9.09178 26.0345C8.7899 26.0282 8.76115 25.8471 8.70039 25.6471C8.58297 25.2606 8.39817 24.9498 7.90218 25.0103C7.8047 25.0221 7.69738 24.9838 7.66707 24.8962C7.56229 24.593 7.28886 24.6008 7.04956 24.5704C6.49935 24.5006 5.94639 24.4516 5.35851 24.3924Z" fill="white"/>
</g>
<defs>
<clipPath id="clip0_157_439">
<rect width="18" height="26" fill="white" transform="translate(0.0961914 0.034668)"/>
</clipPath>
</defs>
</svg>
