<svg width="18" height="26" viewBox="0 0 18 26" fill="none" xmlns="http://www.w3.org/2000/svg">
<g clip-path="url(#clip0_157_439)">
<path d="M12.8061 13.5414C12.8086 13.5698 12.8112 13.5982 12.8117 13.6533C12.8115 13.6994 12.8133 13.7188 12.8088 13.746C12.8137 13.7812 12.825 13.8087 12.8363 13.8362C12.8402 13.8513 12.8441 13.8663 12.8399 13.903C12.8534 14.0696 12.8751 14.2145 12.8967 14.3594C13.0099 14.4565 13.1231 14.5536 13.251 14.6694C13.3126 14.7283 13.3595 14.7685 13.4104 14.8222C13.4613 14.8435 13.5082 14.8514 13.5551 14.8593C13.5363 14.8113 13.5175 14.7634 13.4964 14.6994C13.4904 14.6409 13.4866 14.5984 13.4828 14.5559C13.4828 14.5559 13.485 14.5596 13.5021 14.5566C13.5777 14.4804 13.6361 14.4071 13.6946 14.3338C13.7543 14.4209 13.8215 14.5042 13.8696 14.5969C13.8863 14.6292 13.8528 14.6844 13.8469 14.7297C13.8367 14.8088 13.8115 14.8914 13.8251 14.967C13.89 15.3275 14.1953 15.4778 14.4974 15.6558C14.5275 15.5478 14.5129 15.4435 14.5311 15.345C14.5552 15.2142 14.5652 15.0287 14.6527 14.9732C14.7925 14.8843 14.7964 15.0747 14.8496 15.1561C14.8675 15.1835 14.8942 15.2054 14.9169 15.2299C14.9164 15.2434 14.9162 15.257 14.9026 15.2865C14.8717 15.54 14.8541 15.7775 14.8396 16.0151C14.8393 16.0194 14.8751 16.0259 14.894 16.0313C14.894 16.0313 14.9059 16.0425 14.9134 16.0609C15.0104 16.1458 15.1 16.2122 15.1896 16.2786C15.2517 16.3311 15.3139 16.3835 15.3882 16.456C15.4294 16.4911 15.4585 16.5062 15.4875 16.5212C15.5496 16.5747 15.6116 16.6281 15.685 16.7019C15.7255 16.737 15.7548 16.7518 15.784 16.7666C15.8443 16.8179 15.9046 16.8691 15.9813 16.9383C16.5809 17.4404 17.1622 17.9269 17.7486 18.4076C17.9037 18.5348 18.0013 18.6815 18 18.882C17.9974 19.2727 17.9919 19.6635 17.9917 20.0542C17.9917 20.1982 17.9182 20.2543 17.7802 20.239C17.5985 20.2187 17.4175 20.192 17.2359 20.1696C15.5459 19.9615 13.8556 19.7558 12.1662 19.5428C12.0029 19.5222 11.9454 19.5565 11.9606 19.7205C11.9917 20.0548 12.0178 20.3899 12.0323 20.7252C12.0395 20.8903 12.0981 21.0137 12.2425 21.0987C12.3753 21.2553 12.508 21.412 12.648 21.5918C12.6822 21.6337 12.7093 21.6525 12.7363 21.6712C12.7674 21.7116 12.7984 21.7519 12.8388 21.815C12.8912 21.8917 12.9323 21.9472 12.9773 21.9995C13.6188 22.7448 14.2589 23.4913 14.9042 24.2335C15.0421 24.3921 15.0604 24.5442 14.9475 24.7198C14.817 24.923 14.6908 25.129 14.5679 25.3367C14.4828 25.4806 14.382 25.5077 14.2175 25.4458C13.7323 25.2631 13.2396 25.0993 12.751 24.9252C12.5982 24.8707 12.5412 24.8947 12.5412 25.0732C12.5412 25.3692 12.5054 25.6651 12.4846 25.961C12.454 25.974 12.4233 25.987 12.3927 26C12.3762 25.9628 12.3623 25.9242 12.3429 25.8885C12.1935 25.6131 12.0315 25.3434 11.8972 25.0612C11.8131 24.8844 11.7693 24.6893 11.7093 24.5019C11.6661 24.3668 11.6496 24.218 11.5803 24.0976C11.3438 23.6865 11.1853 23.2533 11.1148 22.7873C11.091 22.63 11.0454 22.4759 11.0097 22.3203C10.9572 22.3754 10.9462 22.426 10.9424 22.4772C10.914 22.859 10.8861 23.2407 10.8599 23.6226C10.846 23.8261 10.756 23.9661 10.5313 23.973C10.3293 23.9793 10.1265 23.972 9.92444 23.9628C9.71708 23.9534 9.63696 23.8251 9.61719 23.6388C9.60015 23.4783 9.57109 23.3189 9.54735 23.1591C9.53541 23.1767 9.52346 23.1944 9.51152 23.2121C9.16604 22.9996 8.82107 23.0604 8.44639 23.2115C8.4304 23.3302 8.40918 23.4978 8.385 23.665C8.36113 23.8299 8.28562 23.9578 8.09504 23.9581C7.80983 23.9587 7.52459 23.9456 7.23936 23.9383C7.23936 23.9383 7.24071 23.9382 7.24036 23.9216C7.15994 23.3703 7.07986 22.8357 7.00303 22.3227C6.99411 22.3474 6.97305 22.4022 6.95458 22.4577C6.93947 22.5032 6.91962 22.5489 6.91527 22.5957C6.86301 23.1582 6.67272 23.6751 6.38072 24.1601C6.34609 24.2176 6.31115 24.2861 6.31037 24.35C6.30442 24.838 6.01207 25.2274 5.83687 25.6559C5.78953 25.7716 5.67095 25.8598 5.58506 25.9606C5.56636 25.9574 5.54766 25.9542 5.52895 25.951C5.49797 25.5957 5.46699 25.2405 5.43458 24.869C5.33121 24.9012 5.23772 24.9272 5.14645 24.9592C4.68365 25.1215 4.2193 25.2799 3.76022 25.4517C3.60994 25.5079 3.52272 25.4719 3.44733 25.3452C3.33104 25.1497 3.20619 24.9591 3.08829 24.7646C2.93666 24.5143 2.94546 24.4183 3.1395 24.1934C4.04401 23.1453 4.94994 22.0982 5.85233 21.0483C5.90862 20.9828 5.96862 20.899 5.97647 20.819C6.01326 20.4441 6.03036 20.0675 6.05881 19.6918C6.07027 19.5405 6.0033 19.4987 5.85728 19.521C5.56554 19.5653 5.27269 19.6031 4.97982 19.6401C4.12874 19.7475 3.27748 19.8536 2.42618 19.9593C1.71432 20.0477 1.00244 20.1358 0.290268 20.2217C0.0650282 20.2489 0.0313045 20.2171 0.0252009 19.9969C0.0185584 19.7572 0.0152605 19.5174 0.0042168 19.2779C-0.0094645 18.9812 0.000364304 18.6909 0.18582 18.4356C0.38625 18.2731 0.58668 18.1107 0.812818 17.9418C0.996049 17.81 1.1551 17.6864 1.31082 17.5589C1.89722 17.0789 2.48568 16.6011 3.06427 16.1123C3.13591 16.0518 3.16646 15.9332 3.19084 15.8355C3.20951 15.7608 3.1879 15.6767 3.1851 15.5967C3.18274 15.5293 3.20816 15.4439 3.17514 15.3978C3.06778 15.248 3.17067 15.1322 3.22873 15.0185C3.27574 14.9264 3.37966 14.9192 3.41513 15.03C3.44964 15.1378 3.43893 15.2589 3.45283 15.3736C3.46361 15.4626 3.48171 15.5507 3.49656 15.6393C3.56887 15.6133 3.64894 15.5989 3.71167 15.5588C3.80504 15.499 3.88492 15.4196 3.97277 15.3513C4.15245 15.2116 4.21549 14.9442 4.17185 14.7277C4.14956 14.6171 4.21833 14.4892 4.24594 14.369C4.30287 14.3819 4.40058 14.3821 4.4096 14.4098C4.44648 14.5229 4.56258 14.6341 4.444 14.7683C4.42414 14.7908 4.45754 14.8578 4.46633 14.9043C4.48874 14.9147 4.51115 14.925 4.53355 14.9354C4.64666 14.8117 4.75978 14.688 4.87289 14.5643C4.95577 14.4913 5.03865 14.4184 5.13929 14.3285C5.14979 14.2274 5.14254 14.1432 5.13528 14.0591C5.13528 14.0327 5.13528 14.0063 5.1498 13.9625C5.16432 13.9123 5.16432 13.8796 5.16433 13.8468C5.17252 13.8095 5.18071 13.7721 5.19849 13.7065C5.23938 13.5434 5.27067 13.4086 5.30197 13.2738C5.32221 13.2742 5.34245 13.2746 5.36269 13.275C5.42224 13.5109 5.48179 13.7468 5.55207 14.0252C5.74969 13.8722 5.90849 13.761 6.05134 13.6329C6.10705 13.583 6.14899 13.4981 6.15955 13.424C6.24565 12.8203 6.28954 12.209 6.40969 11.6121C6.6557 10.3899 6.9392 9.17488 7.21183 7.95788C7.28139 7.64735 7.36805 7.34044 7.44685 7.03187C7.46146 7.00006 7.47607 6.96826 7.50859 6.91699C7.55298 6.7768 7.57946 6.65607 7.60595 6.53534C7.6219 6.504 7.63784 6.47266 7.67355 6.42378C7.7245 6.28605 7.75569 6.16586 7.78689 6.04568C7.79849 6.02582 7.81009 6.00596 7.84118 5.97043C7.89288 5.83448 7.9251 5.71421 7.95731 5.59393C7.97175 5.57577 7.98619 5.55761 8.01866 5.52567C8.04148 5.47948 8.04628 5.44706 8.05561 5.39695C8.06501 5.03819 8.06988 4.69712 8.07475 4.35605C8.07954 4.32731 8.08432 4.29857 8.10679 4.2521C8.12839 4.15294 8.13232 4.0715 8.13688 3.97463C8.1429 3.91848 8.1483 3.87775 8.16335 3.83043C8.17056 3.78268 8.16814 3.74152 8.16648 3.68411C8.16319 3.6363 8.15914 3.60474 8.15509 3.57318C8.16008 3.54443 8.16506 3.51568 8.18692 3.47052C8.20796 3.39938 8.21211 3.34467 8.21785 3.27586C8.22552 3.23407 8.23161 3.20637 8.24672 3.17375C8.25406 3.14032 8.25237 3.11179 8.25201 3.06636C8.25063 3.00515 8.24792 2.96083 8.2452 2.91652C8.2452 2.91652 8.25553 2.90052 8.27261 2.89116C8.29452 2.8397 8.29935 2.79759 8.30688 2.73985C8.31377 2.65051 8.31795 2.57682 8.32214 2.50313C8.32565 2.48577 8.32917 2.46841 8.35316 2.43199C8.4192 2.19641 8.46152 1.97917 8.51108 1.76351C8.58689 1.43365 8.66769 1.10489 8.74637 0.775655C8.74981 0.758295 8.75326 0.740934 8.77615 0.704951C8.80925 0.593182 8.82291 0.500034 8.83656 0.406887C8.84207 0.389728 8.84758 0.37257 8.86585 0.334942C8.89783 0.210503 8.91705 0.106533 8.95196 0.000912543C8.99903 -0.00103908 9.03042 -0.00134058 9.06087 0.0156679C9.11101 0.262194 9.16209 0.491411 9.20414 0.733751C9.2159 0.786741 9.23669 0.826608 9.25748 0.866475C9.25748 0.866475 9.26634 0.86622 9.26211 0.879409C9.25936 0.964617 9.26084 1.03664 9.25372 1.1151C9.26034 1.14796 9.27556 1.17438 9.29678 1.20977C9.31506 1.22397 9.32733 1.22918 9.3396 1.23439C9.34276 1.25183 9.34593 1.26928 9.34947 1.31438C9.41819 1.58103 9.50816 1.81645 9.55056 2.05973C9.65457 2.65657 9.73665 3.25704 9.82848 3.87184C9.84487 3.95288 9.86032 4.01814 9.87821 4.09709C9.88342 4.13847 9.8862 4.16615 9.8787 4.2059C9.88873 4.32165 9.90903 4.42532 9.92933 4.52899C9.93393 4.58386 9.93853 4.63873 9.93948 4.72687C9.93724 4.85942 9.93866 4.95869 9.92988 5.07093C9.93089 5.259 9.84655 5.45175 10.0197 5.59692C10.0197 5.59692 10.0284 5.59763 10.0243 5.60728C10.0466 5.6644 10.0731 5.71186 10.0995 5.75933C10.1058 5.78885 10.1121 5.81837 10.1207 5.87272C10.1276 5.91452 10.1321 5.93148 10.1314 5.96134C10.1482 5.99852 10.1702 6.02283 10.1922 6.04713C10.1922 6.04713 10.2025 6.06453 10.2029 6.08448C10.2078 6.12161 10.2123 6.13879 10.2112 6.16879C10.2275 6.2065 10.2493 6.23139 10.2712 6.25627C10.2712 6.25627 10.2797 6.25701 10.2762 6.26822C10.2842 6.3199 10.2957 6.36035 10.3012 6.41341C10.3169 6.45072 10.3386 6.47542 10.3603 6.50013C10.3603 6.50013 10.3698 6.51763 10.3702 6.53779C10.3924 6.59353 10.4142 6.62912 10.4361 6.66471C10.4408 6.6947 10.4455 6.7247 10.4406 6.77673C10.4634 6.8642 10.4958 6.92963 10.5281 6.99506C10.5281 6.99506 10.5367 6.99579 10.5323 7.00684C10.5391 7.059 10.5502 7.10012 10.5546 7.15358C10.5684 7.19178 10.5889 7.21763 10.6095 7.24349C10.6095 7.24349 10.6182 7.24441 10.6139 7.25434C10.6371 7.32474 10.6646 7.38521 10.6921 7.44568C10.6939 7.46356 10.6958 7.48143 10.6979 7.52656C10.7061 7.59555 10.714 7.63728 10.7166 7.69173C10.7324 7.72933 10.7535 7.75421 10.7746 7.77909C10.7746 7.77909 10.783 7.79612 10.7825 7.81863C10.7977 7.90078 10.8132 7.96043 10.8197 8.02644C10.8294 8.057 10.8482 8.0812 10.8669 8.1054C10.8669 8.1054 10.8756 8.10614 10.8712 8.11799C10.8792 8.18395 10.8917 8.23805 10.8958 8.30382C10.9071 8.34202 10.9268 8.36855 10.9465 8.39507C10.9465 8.39507 10.9551 8.41213 10.9547 8.43587C10.9658 8.5134 10.9772 8.5672 10.9812 8.63307C10.9938 8.67134 11.0138 8.69753 11.0337 8.72373C11.0337 8.72373 11.0422 8.72456 11.0378 8.73575C11.0371 8.7789 11.0409 8.81086 11.0356 8.85163C11.0562 8.92477 11.0858 8.98909 11.1154 9.05342C11.1154 9.05342 11.1238 9.07056 11.123 9.09414C11.1324 9.17197 11.1426 9.22623 11.1449 9.29369C11.1588 9.34543 11.1807 9.38397 11.2026 9.42251C11.2026 9.42251 11.2105 9.43999 11.2091 9.46171C11.2095 9.50314 11.2112 9.52284 11.2042 9.55214C11.2255 9.63898 11.2555 9.71623 11.2855 9.79347C11.2855 9.79347 11.2936 9.81079 11.2919 9.82996C11.2992 9.90696 11.3082 9.9648 11.3102 10.0361C11.3242 10.0881 11.3452 10.1267 11.3661 10.1653C11.3661 10.1653 11.3741 10.1824 11.3727 10.2052C11.374 10.26 11.3766 10.2919 11.3711 10.33C11.3746 10.3638 11.3861 10.3914 11.4012 10.4305C11.4085 10.4577 11.4123 10.4734 11.4059 10.4964C11.4155 10.5412 11.4353 10.5786 11.4551 10.616C11.4551 10.616 11.4623 10.6336 11.4612 10.6586C11.4723 10.764 11.4846 10.8444 11.4877 10.9375C11.4985 10.9898 11.5186 11.0293 11.5387 11.0689C11.5387 11.0689 11.5462 11.0864 11.5445 11.1094C11.5449 11.1646 11.547 11.1967 11.541 11.235C11.5429 11.269 11.553 11.2969 11.5666 11.3385C11.575 11.3798 11.5797 11.4075 11.5745 11.4427C11.5836 11.4878 11.6027 11.5255 11.6218 11.5632C11.6252 11.5799 11.6286 11.5967 11.6296 11.6385C11.628 11.6833 11.6288 11.7029 11.621 11.7305C11.6246 11.7787 11.6367 11.819 11.6518 11.8731C11.6594 11.9146 11.6642 11.9424 11.6588 11.9775C11.6674 12.0227 11.6861 12.0607 11.7048 12.0986C11.7085 12.1152 11.7123 12.1318 11.7136 12.1777C11.7216 12.315 11.732 12.4231 11.7348 12.5454C11.7476 12.6118 11.768 12.6639 11.7885 12.716C11.7926 12.7449 11.7966 12.7738 11.7989 12.8322C11.7985 12.9071 11.8 12.9525 11.7927 13.0056C11.7948 13.0539 11.8058 13.0945 11.8191 13.1502C11.8264 13.2058 11.8314 13.2463 11.826 13.2965C11.8354 13.3698 11.8552 13.4334 11.8751 13.4969C12.0147 13.624 12.1542 13.7511 12.3011 13.9031C12.353 13.9518 12.3977 13.9755 12.4423 13.9993C12.4526 13.9654 12.4628 13.9315 12.4731 13.8976C12.4759 13.8816 12.4788 13.8656 12.4977 13.8384C12.5171 13.7977 12.5205 13.7683 12.5269 13.7235C12.5334 13.6476 12.5368 13.587 12.5403 13.5264C12.5473 13.4981 12.5544 13.4697 12.5803 13.4254C12.6446 13.3673 12.6899 13.3253 12.7352 13.2833C12.7387 13.2896 12.7422 13.2959 12.7447 13.3241C12.7498 13.365 12.7558 13.3841 12.7556 13.4158C12.7683 13.466 12.7872 13.5037 12.8061 13.5414Z" fill="#F3F3F3"/>
</g>
<defs>
<clipPath id="clip0_157_439">
<rect width="18" height="26" fill="white"/>
</clipPath>
</defs>
</svg>
